<?xml version="1.0" encoding="utf-8"?>
<!-- Generator: Adobe Illustrator 28.1.0, SVG Export Plug-In . SVG Version: 6.00 Build 0)  -->
<svg version="1.1" id="Camada_1" xmlns="http://www.w3.org/2000/svg" xmlns:xlink="http://www.w3.org/1999/xlink" x="0px" y="0px"
	 viewBox="0 0 389.2 275.4" style="enable-background:new 0 0 389.2 275.4;" xml:space="preserve">
<style type="text/css">
	.st0{clip-path:url(#SVGID_00000064337667612763141000000005340014059636078248_);}
	.st1{enable-background:new    ;}
	.st2{fill:#2B2B2A;}
	.st3{clip-path:url(#SVGID_00000177453017354369644590000006054757806291873163_);}
	.st4{clip-path:url(#SVGID_00000005989549758857068310000000161762034478805147_);}
	.st5{fill:#54A954;}
	.st6{clip-path:url(#SVGID_00000054981635787286836830000004498070063968400549_);}
	.st7{clip-path:url(#SVGID_00000170260363750342930860000000134212524877470863_);}
	.st8{clip-path:url(#SVGID_00000138561805334209552310000002335863132766217090_);fill:#81B973;}
	.st9{clip-path:url(#SVGID_00000079450886987610018900000004566463629706408373_);fill:#54A954;}
	.st10{clip-path:url(#SVGID_00000049187131137501168150000004108584733349217678_);fill:#B6D3A9;}
	.st11{clip-path:url(#SVGID_00000018921342964012627020000003482552430513723309_);fill:#B6D3A9;}
	.st12{clip-path:url(#SVGID_00000126306667606601441780000004402351026912922032_);fill:#B6D3A9;}
	.st13{clip-path:url(#SVGID_00000165222240076571786930000000647172972432532146_);fill:#B6D3A9;}
</style>
<g>
	<g>
		<defs>
			<rect id="SVGID_1_" width="387.8" height="275.4"/>
		</defs>
		<clipPath id="SVGID_00000142888751409746368050000010987826217400611968_">
			<use xlink:href="#SVGID_1_"  style="overflow:visible;"/>
		</clipPath>
		<g style="clip-path:url(#SVGID_00000142888751409746368050000010987826217400611968_);">
			<g class="st1">
				<path class="st2" d="M387.7,49.1c0,0,0.1,0,0.1,0c0,0,0,0.1,0,0.1s0,0.1,0,0.1c0,0-0.1,0-0.1,0c-0.3,0-0.7,0-1,0
					c-0.3,0-0.6,0-1,0c0,0-0.1,0-0.1,0c0,0,0-0.1,0-0.1c0,0,0-0.1,0-0.1c0,0,0.1,0,0.1,0l0.3,0c-0.1-0.1-0.2-0.1-0.2-0.2
					c-0.1-0.1-0.1-0.2-0.1-0.4c0,0,0,0,0,0c0-0.2,0-0.3,0.1-0.4c0.1-0.1,0.2-0.2,0.3-0.3c0.1-0.1,0.3-0.1,0.4-0.2
					c0.1,0,0.3-0.1,0.4-0.1c0.1,0,0.3,0,0.4,0s0.2,0,0.3,0c0.1,0,0.1,0,0.1,0c0,0,0,0.1,0,0.1c0,0,0,0.1,0,0.1c0,0-0.1,0-0.1,0h-0.5
					c-0.1,0-0.2,0-0.3,0s-0.2,0-0.3,0c-0.1,0-0.2,0.1-0.3,0.1c-0.1,0-0.2,0.1-0.3,0.2c-0.1,0.1-0.1,0.2-0.1,0.3c0,0,0,0,0,0
					c0,0.1,0,0.2,0.1,0.3c0.1,0.1,0.1,0.1,0.2,0.2c0.1,0,0.2,0.1,0.3,0.1c0.1,0,0.2,0,0.4,0H387.7z"/>
				<path class="st2" d="M385.2,47c0,0-0.1,0-0.1,0c0,0,0-0.1,0-0.1c0,0,0-0.1,0-0.1c0,0,0.1,0,0.1,0c0,0,0.1,0,0.1,0
					c0,0,0,0.1,0,0.1c0,0,0,0.1,0,0.1C385.2,46.9,385.2,47,385.2,47z M385.8,47c-0.1,0-0.1,0-0.1,0c0,0,0-0.1,0-0.1c0,0,0-0.1,0-0.1
					c0,0,0.1,0,0.1,0c0.2,0,0.3,0,0.5,0c0.1,0,0.2,0,0.2,0l0.5,0c0.1,0,0.2,0,0.2,0c0.2,0,0.3,0,0.5,0c0,0,0.1,0,0.1,0
					c0,0,0,0.1,0,0.1c0,0,0,0.1,0,0.1c0,0-0.1,0-0.1,0c-0.2,0-0.3,0-0.5,0l-0.9,0C386.1,47,385.9,47,385.8,47z"/>
				<path class="st2" d="M387.7,45.6c0,0,0.1,0,0.1,0c0,0,0,0.1,0,0.1s0,0.1,0,0.1c0,0-0.1,0-0.1,0c-0.3,0-0.7,0-1,0
					c-0.3,0-0.6,0-1,0c0,0-0.1,0-0.1,0c0,0,0-0.1,0-0.1c0,0,0-0.1,0-0.1c0,0,0.1,0,0.1,0l0.3,0c-0.1-0.1-0.2-0.1-0.2-0.2
					c-0.1-0.1-0.1-0.2-0.1-0.4c0,0,0,0,0,0c0-0.2,0-0.3,0.1-0.4c0.1-0.1,0.2-0.2,0.3-0.3c0.1-0.1,0.3-0.1,0.4-0.2
					c0.1,0,0.3-0.1,0.4-0.1c0.1,0,0.3,0,0.4,0s0.2,0,0.3,0c0.1,0,0.1,0,0.1,0c0,0,0,0.1,0,0.1c0,0,0,0.1,0,0.1c0,0-0.1,0-0.1,0h-0.5
					c-0.1,0-0.2,0-0.3,0s-0.2,0-0.3,0c-0.1,0-0.2,0.1-0.3,0.1c-0.1,0-0.2,0.1-0.3,0.2c-0.1,0.1-0.1,0.2-0.1,0.3c0,0,0,0,0,0
					c0,0.1,0,0.2,0.1,0.3c0.1,0.1,0.1,0.1,0.2,0.2c0.1,0,0.2,0.1,0.3,0.1c0.1,0,0.2,0,0.4,0H387.7z"/>
				<path class="st2" d="M386.5,41.8c0,0.1,0.1,0.2,0.1,0.3c0,0.1,0.1,0.3,0.1,0.4c0,0.2,0,0.3,0.1,0.5c0,0.2,0,0.3,0,0.4
					c0.1,0,0.2,0,0.3-0.1s0.2-0.1,0.2-0.2c0.1-0.1,0.1-0.1,0.1-0.2c0-0.1,0-0.1,0-0.2c0,0,0-0.1,0-0.1c0-0.1-0.1-0.2-0.1-0.3
					c-0.1-0.1-0.2-0.2-0.3-0.3c0,0-0.1-0.1-0.1-0.1s0,0,0,0c0,0,0-0.1,0-0.1c0,0,0,0,0.1-0.1c0,0,0,0,0.1,0c0,0,0,0,0.1,0
					c0.2,0.1,0.3,0.3,0.4,0.4s0.1,0.3,0.2,0.4c0,0.1,0,0.1,0,0.2c0,0.1,0,0.2,0,0.3c0,0.1-0.1,0.2-0.2,0.3s-0.2,0.2-0.4,0.2
					c-0.1,0.1-0.3,0.1-0.5,0.1c-0.1,0-0.3,0-0.4,0c-0.1,0-0.2-0.1-0.4-0.1c-0.1-0.1-0.2-0.1-0.3-0.2c-0.1-0.1-0.1-0.2-0.1-0.4
					c0,0,0-0.1,0-0.1c0-0.1,0-0.2,0-0.3c0-0.1,0.1-0.2,0.1-0.3c0.1-0.1,0.2-0.2,0.3-0.3c0.1-0.1,0.2-0.1,0.4-0.1c0,0,0,0,0,0
					C386.5,41.8,386.5,41.8,386.5,41.8z M385.8,42.9c0,0.1,0,0.1,0.1,0.2s0.1,0.1,0.1,0.1c0.1,0,0.1,0.1,0.2,0.1s0.1,0,0.2,0
					c0-0.2,0-0.4-0.1-0.7c0-0.2-0.1-0.4-0.1-0.6c-0.1,0-0.1,0-0.2,0.1c-0.1,0-0.1,0.1-0.2,0.2c0,0.1-0.1,0.1-0.1,0.2s0,0.1,0,0.2
					C385.8,42.8,385.8,42.8,385.8,42.9z"/>
			</g>
			<g class="st1">
				<path class="st2" d="M384.6,39.7C384.6,39.7,384.7,39.7,384.6,39.7c0.1,0,0.1,0,0.1,0c0,0,0,0,0.1,0c0,0,0,0.1,0,0.1
					c0,0,0,0,0,0s0,0-0.1,0.1c-0.2,0.1-0.2,0.2-0.3,0.3c0,0,0,0,0,0c0,0,0,0.1,0,0.1c0,0,0.1,0.1,0.1,0.1c0.1,0,0.1,0.1,0.2,0.1
					c0.1,0,0.2,0,0.4,0c0.1,0,0.2,0,0.2,0c0.1,0,0.1,0,0.2,0l0-0.6c0,0,0-0.1,0-0.1c0,0,0,0,0.1,0c0,0,0,0,0,0c0,0,0,0,0.1,0
					c0,0,0,0,0.1,0.1l0,0.6c0.3,0,0.6,0,0.8,0c0.3,0,0.6,0,0.9,0c0,0,0.1,0,0.1,0.1c0,0,0,0.1,0,0.1s0,0.1,0,0.1c0,0,0,0-0.1,0
					c0,0,0,0,0,0c-0.3,0-0.6,0-0.9,0c-0.3,0-0.6,0-0.8,0l0,0.3c0,0,0,0.1,0,0.1c0,0,0,0-0.1,0c0,0,0,0,0,0c0,0-0.1,0-0.1,0
					c0,0,0-0.1,0-0.1l0-0.3c-0.1,0-0.1,0-0.2,0s-0.1,0-0.2,0c-0.2,0-0.4,0-0.5-0.1c-0.1,0-0.2-0.1-0.3-0.2c-0.1-0.1-0.1-0.1-0.2-0.2
					c0-0.1,0-0.2,0-0.2c0-0.1,0-0.3,0.1-0.3C384.4,39.9,384.5,39.8,384.6,39.7z"/>
			</g>
			<g class="st1">
				<path class="st2" d="M385.6,38.4c-0.1,0-0.1,0-0.1-0.1c0,0,0-0.1,0-0.1s0-0.1,0-0.1c0,0,0.1,0,0.1,0c0.3,0,0.7,0,1,0
					s0.7,0,1.1,0c0,0,0.1,0,0.1,0.1c0,0,0,0.1,0,0.1c0,0,0,0.1,0,0.1c0,0-0.1,0-0.1,0.1l-0.3,0c0.1,0.1,0.1,0.2,0.2,0.3
					c0,0.1,0,0.2,0,0.2c0,0.1,0,0.2,0,0.3c0,0.1-0.1,0.2-0.1,0.3c-0.1,0.1-0.1,0.1-0.2,0.2s-0.2,0.1-0.2,0.1s-0.2,0-0.2,0
					c0,0-0.1,0-0.1,0c-0.1,0-0.2,0-0.3-0.1c-0.1,0-0.2-0.1-0.3-0.2c-0.1-0.1-0.2-0.2-0.2-0.3c-0.1-0.1-0.1-0.2-0.1-0.4
					c0-0.1,0-0.2,0.1-0.3c0-0.1,0.1-0.2,0.1-0.2c-0.1,0-0.1,0-0.2,0C385.7,38.4,385.7,38.4,385.6,38.4z M387.3,39.1
					c0-0.1,0-0.1,0-0.2c0,0,0-0.1,0-0.1c0,0,0-0.1-0.1-0.2s-0.1-0.1-0.2-0.2c-0.1,0-0.1-0.1-0.2-0.1l-0.3,0c-0.1,0-0.2,0.1-0.3,0.1
					c-0.1,0.1-0.1,0.1-0.1,0.2c0,0.1,0,0.1,0,0.2c0,0,0,0.1,0,0.1c0,0.1,0,0.1,0.1,0.2c0.1,0.1,0.1,0.1,0.2,0.2s0.2,0.1,0.3,0.1
					c0,0,0,0,0,0c0.1,0,0.2,0,0.3-0.1C387.2,39.3,387.2,39.2,387.3,39.1z"/>
				<path class="st2" d="M385.7,37.4c-0.1,0-0.1,0-0.1,0c0,0,0-0.1,0-0.1c0,0,0-0.1,0-0.1c0,0,0.1,0,0.1,0h0.3
					c-0.1-0.1-0.1-0.1-0.1-0.2s-0.1-0.2-0.1-0.2s0-0.2,0.1-0.2s0.1-0.2,0.2-0.2c0,0,0.1,0,0.1,0c0,0,0,0,0,0c0,0,0,0,0.1,0
					c0,0,0,0,0,0.1c0,0,0,0,0,0s0,0.1-0.1,0.1c-0.1,0.1-0.2,0.2-0.2,0.3c0,0,0,0.1,0,0.1c0,0.1,0.1,0.1,0.2,0.2
					c0.1,0,0.1,0.1,0.2,0.1s0.2,0,0.3,0l0.8,0c0,0,0.1,0,0.1,0c0,0,0,0.1,0,0.1s0,0.1,0,0.1c0,0-0.1,0-0.1,0L385.7,37.4z"/>
			</g>
		</g>
	</g>
	<g>
		<defs>
			<rect id="SVGID_00000043456754045541870250000010495127839701095566_" width="387.8" height="275.4"/>
		</defs>
		<clipPath id="SVGID_00000086656295375725196940000018321298252632195261_">
			<use xlink:href="#SVGID_00000043456754045541870250000010495127839701095566_"  style="overflow:visible;"/>
		</clipPath>
		<g style="clip-path:url(#SVGID_00000086656295375725196940000018321298252632195261_);">
			<g class="st1">
				<path class="st2" d="M384.3,35C384.3,35,384.3,35,384.3,35c-0.1-0.1-0.1-0.1-0.1-0.1c0,0,0,0,0-0.1c0,0,0,0,0.1-0.1
					c0,0,0.1,0,0.1,0c0,0,0,0,0,0l3.4,1c0,0,0.1,0,0.1,0.1c0,0,0,0.1,0,0.1c0,0,0,0,0,0.1c0,0,0,0-0.1,0.1c0,0-0.1,0-0.1,0
					c0,0,0,0,0,0L384.3,35z"/>
			</g>
		</g>
	</g>
	<g>
		<defs>
			<rect id="SVGID_00000073719592760398204370000011909334619376723897_" width="387.8" height="275.4"/>
		</defs>
		<clipPath id="SVGID_00000067204684909728463100000001183056043995324813_">
			<use xlink:href="#SVGID_00000073719592760398204370000011909334619376723897_"  style="overflow:visible;"/>
		</clipPath>
		<g style="clip-path:url(#SVGID_00000067204684909728463100000001183056043995324813_);">
			<g class="st1">
				<path class="st2" d="M387.3,34.2c0.1-0.1,0.1-0.1,0.1-0.3c0-0.1,0-0.2,0-0.3c0,0,0,0,0-0.1s0-0.1-0.1-0.2s-0.1-0.1-0.2-0.1
					c-0.1,0-0.2,0-0.2,0.1c0,0.1-0.1,0.1-0.1,0.2s-0.1,0.2-0.1,0.3c0,0.1-0.1,0.2-0.1,0.3c0,0.1-0.1,0.2-0.1,0.2
					c-0.1,0.1-0.1,0.1-0.3,0.1c0,0,0,0-0.1,0c-0.1,0-0.2,0-0.3-0.1c-0.1,0-0.1-0.1-0.2-0.2c-0.1-0.1-0.1-0.1-0.1-0.2
					c0-0.1,0-0.2-0.1-0.3c0,0,0,0,0-0.1c0-0.1,0-0.2,0.1-0.3c0-0.1,0.1-0.2,0.2-0.3c0,0,0.1,0,0.1,0c0,0,0,0,0,0c0,0,0,0,0.1,0
					c0,0,0,0,0,0.1c0,0,0,0,0,0s0,0-0.1,0.1c-0.1,0.1-0.1,0.1-0.1,0.2c0,0.1,0,0.1,0,0.2c0,0,0,0,0,0.1c0,0.1,0,0.2,0.1,0.3
					c0.1,0.1,0.1,0.1,0.2,0.1c0,0,0,0,0,0c0.1,0,0.1,0,0.2-0.1s0.1-0.1,0.1-0.2c0-0.1,0.1-0.2,0.1-0.3s0.1-0.2,0.1-0.3
					s0.1-0.2,0.2-0.2c0.1-0.1,0.2-0.1,0.3-0.1c0,0,0,0,0,0c0.1,0,0.2,0,0.3,0.1s0.1,0.1,0.2,0.2c0,0.1,0.1,0.2,0.1,0.3
					c0,0.1,0,0.2,0,0.2c0,0,0,0.1,0,0.2c0,0.1,0,0.2-0.1,0.3c0,0.1-0.1,0.2-0.2,0.2c0,0-0.1,0-0.1,0c0,0,0,0,0,0c0,0-0.1,0-0.1,0
					c0,0,0-0.1-0.1-0.1S387.3,34.3,387.3,34.2C387.3,34.3,387.3,34.3,387.3,34.2z"/>
				<path class="st2" d="M386,31.7l1.7,0c0,0,0.1,0,0.1,0c0,0,0,0.1,0,0.1c0,0,0,0.1,0,0.1c0,0-0.1,0.1-0.1,0.1l-1.7,0l0,0.4
					c0,0,0,0.1,0,0.1c0,0,0,0-0.1,0c0,0,0,0,0,0c0,0-0.1,0-0.1,0c0,0,0-0.1,0-0.1l0-0.5l-1.1,0c-0.1,0-0.1,0-0.1,0c0,0,0-0.1,0-0.1
					s0-0.1,0-0.1c0,0,0.1,0,0.1,0l1.1,0l0-0.5c0,0,0-0.1,0-0.1s0,0,0.1,0c0,0,0,0,0,0c0,0,0.1,0,0.1,0c0,0,0,0,0,0.1L386,31.7z"/>
				<path class="st2" d="M387.7,29.9C387.7,29.9,387.7,29.9,387.7,29.9c0,0.2,0,0.3-0.1,0.4c0,0.1-0.1,0.2-0.2,0.3
					c-0.1,0.1-0.2,0.1-0.3,0.2c-0.1,0-0.2,0.1-0.4,0.1s-0.2,0-0.3-0.1s-0.2-0.1-0.3-0.2c-0.1-0.1-0.2-0.2-0.2-0.3
					c-0.1-0.1-0.1-0.2-0.1-0.4c0-0.2,0-0.3,0.1-0.4c0.1-0.1,0.1-0.2,0.2-0.3c0.1-0.1,0.2-0.1,0.3-0.2c0.1,0,0.2-0.1,0.4-0.1
					c0.1,0,0.2,0,0.3,0.1c0.1,0,0.2,0.1,0.3,0.2c0.1,0.1,0.2,0.2,0.2,0.3C387.7,29.6,387.7,29.8,387.7,29.9z M387.4,29.9
					c0-0.1,0-0.2-0.1-0.3c0-0.1-0.1-0.1-0.1-0.2c-0.1,0-0.1-0.1-0.2-0.1s-0.2,0-0.2,0s-0.2,0-0.2,0c-0.1,0-0.2,0.1-0.2,0.1
					c-0.1,0.1-0.1,0.1-0.1,0.2c0,0.1-0.1,0.2-0.1,0.3c0,0.1,0,0.2,0.1,0.3s0.1,0.1,0.2,0.2c0.1,0.1,0.1,0.1,0.2,0.1
					c0.1,0,0.2,0,0.2,0c0.2,0,0.3-0.1,0.4-0.2C387.3,30.3,387.4,30.1,387.4,29.9z"/>
				<path class="st2" d="M385.6,27.9c0,0,0-0.1,0-0.1c0-0.1,0-0.1,0-0.2c0-0.1,0-0.1,0.1-0.2c0-0.1,0.1-0.1,0.2-0.2
					c0.1-0.1,0.2-0.1,0.3-0.1c0,0,0,0,0,0c0,0,0,0,0.1,0c0,0,0,0,0,0.1s0,0,0,0c0,0,0,0.1,0,0.1s0,0-0.1,0.1c-0.1,0-0.2,0.1-0.3,0.2
					c-0.1,0.1-0.1,0.2-0.1,0.2c0,0,0,0.1,0,0.1c0,0.1,0,0.2,0.1,0.2s0.1,0.1,0.2,0.1c0.1,0,0.1,0.1,0.2,0.1s0.2,0,0.2,0
					c0,0,0,0,0.1,0c0.1,0,0.2,0,0.3,0c0.1,0,0.2-0.1,0.3-0.1c0.1-0.1,0.1-0.1,0.2-0.2c0-0.1,0.1-0.2,0.1-0.2c0,0,0,0,0,0
					c0-0.1,0-0.2-0.1-0.4c-0.1-0.1-0.2-0.3-0.3-0.4c0,0-0.1-0.1-0.1-0.1s0,0,0,0c0,0,0-0.1,0-0.1c0,0,0,0,0.1,0c0,0,0,0,0,0
					c0,0,0.1,0,0.1,0c0.1,0.1,0.2,0.1,0.2,0.2c0.1,0.1,0.1,0.2,0.2,0.3c0,0.1,0.1,0.2,0.1,0.3c0,0.1,0,0.2,0,0.2
					c0,0.1,0,0.3-0.1,0.4c-0.1,0.1-0.1,0.2-0.2,0.3c-0.1,0.1-0.2,0.1-0.4,0.2c-0.1,0-0.3,0.1-0.4,0.1c-0.1,0-0.2,0-0.4,0
					c-0.1,0-0.2-0.1-0.3-0.1c-0.1-0.1-0.2-0.1-0.2-0.2C385.7,28.2,385.6,28,385.6,27.9z"/>
				<path class="st2" d="M384.4,26.3c-0.1,0-0.1,0-0.1,0c0,0,0-0.1,0-0.1s0-0.1,0-0.1c0,0,0.1-0.1,0.1-0.1l2.1,0l-0.7-0.9
					c0,0,0-0.1,0-0.1c0,0,0,0,0,0s0,0,0-0.1c0,0,0.1,0,0.1,0c0,0,0,0,0,0c0,0,0.1,0,0.1,0l0.8,1l0.7-1.4c0,0,0-0.1,0.1-0.1
					c0,0,0,0,0.1,0c0,0,0,0,0.1,0c0,0,0,0,0.1,0.1c0,0,0,0,0,0.1c0,0,0,0,0,0.1l-0.7,1.3l0.6,0c0,0,0,0,0,0c0,0,0.1,0,0.1,0
					c0,0,0,0.1,0,0.1s0,0,0,0c0,0,0,0.1,0,0.1c0,0-0.1,0-0.1,0.1L384.4,26.3z"/>
				<path class="st2" d="M387.5,24.2c-0.1,0-0.1,0-0.2-0.1c-0.1-0.1-0.1-0.1-0.1-0.2c0-0.1,0-0.1,0.1-0.2c0.1-0.1,0.1-0.1,0.2-0.1
					c0.1,0,0.1,0,0.2,0.1c0.1,0.1,0.1,0.1,0.1,0.2c0,0.1,0,0.1-0.1,0.2C387.6,24.1,387.6,24.2,387.5,24.2z"/>
				<path class="st2" d="M385.6,21.9c-0.1,0-0.1,0-0.1-0.1c0,0,0-0.1,0-0.1s0-0.1,0-0.1c0,0,0.1,0,0.1,0c0.3,0,0.7,0,1,0
					s0.7,0,1.1,0c0,0,0.1,0,0.1,0.1c0,0,0,0.1,0,0.1c0,0,0,0.1,0,0.1c0,0-0.1,0-0.1,0.1l-0.3,0c0.1,0.1,0.1,0.2,0.2,0.3
					c0,0.1,0,0.2,0,0.2c0,0.1,0,0.2,0,0.3c0,0.1-0.1,0.2-0.1,0.3c-0.1,0.1-0.1,0.1-0.2,0.2s-0.2,0.1-0.2,0.1s-0.2,0-0.2,0
					c0,0-0.1,0-0.1,0c-0.1,0-0.2,0-0.3-0.1c-0.1,0-0.2-0.1-0.3-0.2c-0.1-0.1-0.2-0.2-0.2-0.3c-0.1-0.1-0.1-0.2-0.1-0.4
					c0-0.1,0-0.2,0.1-0.3c0-0.1,0.1-0.2,0.1-0.2c-0.1,0-0.1,0-0.2,0C385.7,21.9,385.7,21.9,385.6,21.9z M387.3,22.6
					c0-0.1,0-0.1,0-0.2c0,0,0-0.1,0-0.1c0,0,0-0.1-0.1-0.2S387.1,22,387,22c-0.1,0-0.1-0.1-0.2-0.1l-0.3,0c-0.1,0-0.2,0.1-0.3,0.1
					c-0.1,0.1-0.1,0.1-0.1,0.2c0,0.1,0,0.1,0,0.2c0,0,0,0.1,0,0.1c0,0.1,0,0.1,0.1,0.2c0.1,0.1,0.1,0.1,0.2,0.2s0.2,0.1,0.3,0.1
					c0,0,0,0,0,0c0.1,0,0.2,0,0.3-0.1C387.2,22.8,387.2,22.7,387.3,22.6z"/>
				<path class="st2" d="M384.4,19.4c-0.1,0-0.1,0-0.1,0c0,0,0-0.1,0-0.1s0-0.1,0-0.1c0,0,0.1,0,0.1-0.1c0.3,0,0.5,0,0.8,0
					c0.2,0,0.4,0,0.6,0c0.1,0,0.2,0,0.4,0s0.4,0,0.7,0s0.5,0,0.8,0c0,0,0.1,0,0.1,0.1c0,0,0,0.1,0,0.1c0,0,0,0.1,0,0.1
					c0,0-0.1,0-0.1,0.1c0,0,0,0-0.1,0l-0.1,0c0,0,0,0-0.1,0c0.1,0.1,0.2,0.3,0.2,0.4c0,0.1,0,0.2,0,0.3c0,0.1,0,0.2-0.1,0.4
					c0,0.1-0.1,0.3-0.3,0.4c-0.1,0.1-0.3,0.2-0.6,0.2c0,0-0.1,0-0.1,0c-0.2,0-0.4-0.1-0.6-0.2c-0.2-0.1-0.3-0.2-0.3-0.4
					c-0.1-0.1-0.1-0.3-0.1-0.4c0-0.1,0-0.2,0-0.3c0-0.1,0.1-0.3,0.2-0.4c-0.1,0-0.2,0-0.3,0c-0.1,0-0.3,0-0.5,0
					C384.9,19.4,384.7,19.4,384.4,19.4z M386.7,19.4c-0.2,0-0.3,0-0.4,0.1c-0.1,0.1-0.2,0.2-0.3,0.3c-0.1,0.1-0.1,0.2-0.1,0.3
					c0,0,0,0.1,0,0.1s0,0.1,0.1,0.2c0.1,0.1,0.1,0.2,0.3,0.2c0.1,0.1,0.2,0.1,0.3,0.1c0,0,0.1,0,0.1,0c0.2,0,0.3-0.1,0.4-0.1
					c0.1-0.1,0.2-0.2,0.2-0.2c0-0.1,0.1-0.2,0.1-0.3c0,0,0-0.1,0-0.1c0-0.1,0-0.1-0.1-0.2c-0.1-0.1-0.1-0.2-0.2-0.2
					C386.9,19.5,386.8,19.4,386.7,19.4z"/>
				<path class="st2" d="M387.7,17.7C387.7,17.7,387.7,17.7,387.7,17.7c0,0.2,0,0.3-0.1,0.4c0,0.1-0.1,0.2-0.2,0.3
					c-0.1,0.1-0.2,0.1-0.3,0.2c-0.1,0-0.2,0.1-0.4,0.1s-0.2,0-0.3-0.1s-0.2-0.1-0.3-0.2c-0.1-0.1-0.2-0.2-0.2-0.3
					c-0.1-0.1-0.1-0.2-0.1-0.4c0-0.2,0-0.3,0.1-0.4c0.1-0.1,0.1-0.2,0.2-0.3c0.1-0.1,0.2-0.1,0.3-0.2c0.1,0,0.2-0.1,0.4-0.1
					c0.1,0,0.2,0,0.3,0.1c0.1,0,0.2,0.1,0.3,0.2c0.1,0.1,0.2,0.2,0.2,0.3C387.7,17.4,387.7,17.5,387.7,17.7z M387.4,17.7
					c0-0.1,0-0.2-0.1-0.3c0-0.1-0.1-0.1-0.1-0.2c-0.1,0-0.1-0.1-0.2-0.1s-0.2,0-0.2,0s-0.2,0-0.2,0c-0.1,0-0.2,0.1-0.2,0.1
					c-0.1,0.1-0.1,0.1-0.1,0.2c0,0.1-0.1,0.2-0.1,0.3c0,0.1,0,0.2,0.1,0.3s0.1,0.1,0.2,0.2c0.1,0.1,0.1,0.1,0.2,0.1
					c0.1,0,0.2,0,0.2,0c0.2,0,0.3-0.1,0.4-0.2C387.3,18,387.4,17.9,387.4,17.7z"/>
				<path class="st2" d="M384.4,16.3c-0.1,0-0.1,0-0.1-0.1c0,0,0-0.1,0-0.1c0,0,0-0.1,0-0.1c0,0,0.1,0,0.1-0.1c0.3,0,0.5,0,0.7,0
					c0.2,0,0.3,0,0.3,0c0.2,0,0.4,0,0.7,0c-0.1-0.1-0.2-0.2-0.2-0.3c-0.1-0.1-0.1-0.2-0.1-0.3s0-0.1,0-0.2c0-0.1,0-0.2,0-0.3
					c0-0.1,0.1-0.2,0.2-0.3c0.1-0.1,0.2-0.2,0.3-0.2s0.3-0.1,0.4-0.1c0,0,0,0,0,0c0.2,0,0.4,0.1,0.6,0.2c0.1,0.1,0.2,0.2,0.3,0.4
					c0.1,0.1,0.1,0.3,0.1,0.4c0,0.1,0,0.1,0,0.3s-0.1,0.2-0.2,0.4l0.2,0c0,0,0,0,0,0c0,0,0.1,0,0.1,0c0,0,0,0,0,0.1s0,0,0,0
					c0,0,0,0.1,0,0.1c0,0-0.1,0.1-0.1,0.1c-0.5,0.1-1.1,0.1-1.6,0.1C385.5,16.3,384.9,16.3,384.4,16.3z M386.7,14.6
					c-0.1,0-0.3,0-0.4,0.1c-0.1,0.1-0.2,0.1-0.2,0.2c-0.1,0.1-0.1,0.2-0.1,0.2s0,0.1,0,0.1c0,0.1,0,0.2,0.1,0.3
					c0.1,0.1,0.1,0.2,0.2,0.3c0.1,0.1,0.2,0.1,0.4,0.1c0,0,0,0,0.1,0c0.1,0,0.2,0,0.3-0.1s0.2-0.1,0.2-0.2s0.1-0.2,0.1-0.3
					c0,0,0,0,0-0.1s0-0.1-0.1-0.2s-0.1-0.2-0.2-0.3C386.9,14.6,386.8,14.6,386.7,14.6z"/>
				<path class="st2" d="M386.5,12.1c0,0.1,0.1,0.2,0.1,0.3c0,0.1,0.1,0.3,0.1,0.4c0,0.2,0,0.3,0.1,0.5c0,0.2,0,0.3,0,0.4
					c0.1,0,0.2,0,0.3-0.1s0.2-0.1,0.2-0.2c0.1-0.1,0.1-0.1,0.1-0.2c0-0.1,0-0.1,0-0.2c0,0,0-0.1,0-0.1c0-0.1-0.1-0.2-0.1-0.3
					c-0.1-0.1-0.2-0.2-0.3-0.3c0,0-0.1-0.1-0.1-0.1s0,0,0,0c0,0,0-0.1,0-0.1c0,0,0,0,0.1-0.1c0,0,0,0,0.1,0c0,0,0,0,0.1,0
					c0.2,0.1,0.3,0.3,0.4,0.4s0.1,0.3,0.2,0.4c0,0.1,0,0.1,0,0.2c0,0.1,0,0.2,0,0.3c0,0.1-0.1,0.2-0.2,0.3s-0.2,0.2-0.4,0.2
					c-0.1,0.1-0.3,0.1-0.5,0.1c-0.1,0-0.3,0-0.4,0c-0.1,0-0.2-0.1-0.4-0.1c-0.1-0.1-0.2-0.1-0.3-0.2c-0.1-0.1-0.1-0.2-0.1-0.4
					c0,0,0-0.1,0-0.1c0-0.1,0-0.2,0-0.3c0-0.1,0.1-0.2,0.1-0.3c0.1-0.1,0.2-0.2,0.3-0.3c0.1-0.1,0.2-0.1,0.4-0.1c0,0,0,0,0,0
					C386.5,12,386.5,12,386.5,12.1z M385.8,13.1c0,0.1,0,0.1,0.1,0.2s0.1,0.1,0.1,0.1c0.1,0,0.1,0.1,0.2,0.1s0.1,0,0.2,0
					c0-0.2,0-0.4-0.1-0.7c0-0.2-0.1-0.4-0.1-0.6c-0.1,0-0.1,0-0.2,0.1c-0.1,0-0.1,0.1-0.2,0.2c0,0.1-0.1,0.1-0.1,0.2s0,0.1,0,0.2
					C385.8,13,385.8,13.1,385.8,13.1z"/>
				<path class="st2" d="M387.5,11.6c-0.1,0-0.1,0-0.2-0.1c-0.1-0.1-0.1-0.1-0.1-0.2c0-0.1,0-0.1,0.1-0.2c0.1-0.1,0.1-0.1,0.2-0.1
					c0.1,0,0.1,0,0.2,0.1c0.1,0.1,0.1,0.1,0.1,0.2c0,0.1,0,0.1-0.1,0.2C387.6,11.6,387.6,11.6,387.5,11.6z"/>
				<path class="st2" d="M385.6,10c0,0,0-0.1,0-0.1c0-0.1,0-0.1,0-0.2c0-0.1,0-0.1,0.1-0.2c0-0.1,0.1-0.1,0.2-0.2
					c0.1-0.1,0.2-0.1,0.3-0.1c0,0,0,0,0,0c0,0,0,0,0.1,0c0,0,0,0,0,0.1s0,0,0,0c0,0,0,0.1,0,0.1s0,0-0.1,0.1c-0.1,0-0.2,0.1-0.3,0.2
					c-0.1,0.1-0.1,0.2-0.1,0.2c0,0,0,0.1,0,0.1c0,0.1,0,0.2,0.1,0.2s0.1,0.1,0.2,0.1c0.1,0,0.1,0.1,0.2,0.1s0.2,0,0.2,0
					c0,0,0,0,0.1,0c0.1,0,0.2,0,0.3,0c0.1,0,0.2-0.1,0.3-0.1c0.1-0.1,0.1-0.1,0.2-0.2c0-0.1,0.1-0.2,0.1-0.2c0,0,0,0,0,0
					c0-0.1,0-0.2-0.1-0.4c-0.1-0.1-0.2-0.3-0.3-0.4c0,0-0.1-0.1-0.1-0.1s0,0,0,0c0,0,0-0.1,0-0.1c0,0,0,0,0.1,0c0,0,0,0,0,0
					c0,0,0.1,0,0.1,0c0.1,0.1,0.2,0.1,0.2,0.2c0.1,0.1,0.1,0.2,0.2,0.3c0,0.1,0.1,0.2,0.1,0.3c0,0.1,0,0.2,0,0.2
					c0,0.1,0,0.3-0.1,0.4c-0.1,0.1-0.1,0.2-0.2,0.3c-0.1,0.1-0.2,0.1-0.4,0.2c-0.1,0-0.3,0.1-0.4,0.1c-0.1,0-0.2,0-0.4,0
					c-0.1,0-0.2-0.1-0.3-0.1c-0.1-0.1-0.2-0.1-0.2-0.2C385.7,10.2,385.6,10.1,385.6,10z"/>
				<path class="st2" d="M387.7,7.6C387.7,7.6,387.7,7.6,387.7,7.6c0,0.2,0,0.3-0.1,0.4c0,0.1-0.1,0.2-0.2,0.3
					c-0.1,0.1-0.2,0.1-0.3,0.2c-0.1,0-0.2,0.1-0.4,0.1s-0.2,0-0.3-0.1s-0.2-0.1-0.3-0.2c-0.1-0.1-0.2-0.2-0.2-0.3
					c-0.1-0.1-0.1-0.2-0.1-0.4c0-0.2,0-0.3,0.1-0.4c0.1-0.1,0.1-0.2,0.2-0.3c0.1-0.1,0.2-0.1,0.3-0.2c0.1,0,0.2-0.1,0.4-0.1
					c0.1,0,0.2,0,0.3,0.1c0.1,0,0.2,0.1,0.3,0.2c0.1,0.1,0.2,0.2,0.2,0.3C387.7,7.3,387.7,7.4,387.7,7.6z M387.4,7.6
					c0-0.1,0-0.2-0.1-0.3c0-0.1-0.1-0.1-0.1-0.2c-0.1,0-0.1-0.1-0.2-0.1s-0.2,0-0.2,0s-0.2,0-0.2,0c-0.1,0-0.2,0.1-0.2,0.1
					c-0.1,0.1-0.1,0.1-0.1,0.2c0,0.1-0.1,0.2-0.1,0.3c0,0.1,0,0.2,0.1,0.3s0.1,0.1,0.2,0.2c0.1,0.1,0.1,0.1,0.2,0.1
					c0.1,0,0.2,0,0.2,0c0.2,0,0.3-0.1,0.4-0.2C387.3,7.9,387.4,7.8,387.4,7.6z"/>
				<path class="st2" d="M386.2,5.9c-0.1-0.1-0.3-0.2-0.3-0.3c-0.1-0.1-0.1-0.2-0.1-0.4c0-0.1,0-0.2,0.1-0.3c0-0.1,0.1-0.1,0.2-0.2
					c0.1-0.1,0.2-0.1,0.3-0.1c0.1,0,0.2-0.1,0.3-0.1c-0.1,0-0.1,0-0.2-0.1c-0.1,0-0.2-0.1-0.2-0.1c-0.1-0.1-0.1-0.1-0.2-0.2
					c-0.1-0.1-0.1-0.2-0.1-0.3c0,0,0,0,0,0c0-0.1,0-0.2,0.1-0.3c0.1-0.1,0.1-0.2,0.2-0.2c0.1-0.1,0.2-0.1,0.3-0.1
					c0.1,0,0.3-0.1,0.4-0.1c0.1,0,0.3,0,0.5,0c0.2,0,0.3,0,0.5,0c0,0,0.1,0,0.1,0c0,0,0,0.1,0,0.1s0,0.1,0,0.1c0,0-0.1,0-0.1,0
					c-0.2,0-0.4,0-0.6,0s-0.4,0-0.5,0.1c-0.2,0-0.3,0.1-0.4,0.1C386,3.5,386,3.6,386,3.7c0,0,0,0,0,0c0,0.1,0,0.2,0.1,0.3
					c0.1,0.1,0.2,0.1,0.4,0.2c0.2,0,0.3,0.1,0.5,0.1c0.2,0,0.3,0,0.5,0c0.1,0,0.2,0,0.3,0c0,0,0.1,0,0.1,0c0,0,0,0.1,0,0.1s0,0,0,0
					c0,0,0,0.1,0,0.1c0,0-0.1,0-0.1,0c-0.2,0-0.4,0-0.6,0c-0.2,0-0.4,0-0.6,0.1c-0.2,0-0.3,0.1-0.4,0.2C386,5,386,5,386,5.2
					c0,0,0,0,0,0c0,0.1,0,0.2,0.1,0.3s0.1,0.1,0.2,0.2c0.1,0,0.2,0.1,0.3,0.1c0.1,0,0.3,0,0.4,0.1c0.1,0,0.3,0,0.4,0s0.2,0,0.3,0
					c0,0,0.1,0,0.1,0.1c0,0,0,0.1,0,0.1s0,0.1,0,0.1c0,0,0,0-0.1,0c-0.3,0-0.6,0-0.9,0c-0.3,0-0.7,0-1,0c-0.1,0-0.1,0-0.1-0.1
					c0,0,0-0.1,0-0.1c0,0,0-0.1,0-0.1s0.1,0,0.1,0L386.2,5.9z"/>
			</g>
		</g>
	</g>
</g>
<rect x="17.6" y="17.3" class="st5" width="350.5" height="245.3"/>
<g>
	<g>
		<defs>
			<rect id="SVGID_00000173134629613622605270000003825392889190960302_" x="17.6" y="21.7" width="350.5" height="236.2"/>
		</defs>
		<clipPath id="SVGID_00000062883848619166977660000016473120632828001200_">
			<use xlink:href="#SVGID_00000173134629613622605270000003825392889190960302_"  style="overflow:visible;"/>
		</clipPath>
		<g style="clip-path:url(#SVGID_00000062883848619166977660000016473120632828001200_);">
			<g>
				<defs>
					<rect id="SVGID_00000059994872317555346780000006007560530872287883_" x="16.3" y="21.7" width="352.9" height="236.2"/>
				</defs>
				<clipPath id="SVGID_00000116213568538514056440000005297765804862808498_">
					<use xlink:href="#SVGID_00000059994872317555346780000006007560530872287883_"  style="overflow:visible;"/>
				</clipPath>
				<g transform="matrix(1 0 0 1 0 0)" style="clip-path:url(#SVGID_00000116213568538514056440000005297765804862808498_);">
					
						<image style="overflow:visible;enable-background:new    ;" width="1466" height="979" xlink:href="C011BB9F.jpeg"  transform="matrix(0.2408 0 0 0.2408 16.3244 21.9345)">
					</image>
				</g>
			</g>
		</g>
	</g>
</g>
<g>
	<g>
		<defs>
			<rect id="SVGID_00000093146262715372957800000013174986280407034295_" width="387.8" height="275.4"/>
		</defs>
		<clipPath id="SVGID_00000164514505105356137740000013824510177651138231_">
			<use xlink:href="#SVGID_00000093146262715372957800000013174986280407034295_"  style="overflow:visible;"/>
		</clipPath>
		<path style="clip-path:url(#SVGID_00000164514505105356137740000013824510177651138231_);fill:#81B973;" d="M383,271.3
			c0-0.4,0-0.7-0.1-1.1c-0.1-0.6-0.1-1.2-0.2-1.8c-0.1-1.1-0.2-2.3-0.3-3.4c-0.3-6.7-0.5-12.9-0.4-19c0-5.2,0-26.1,0-31.1v-4.8
			c0-3.3,0-6.5-0.1-9.8v-6.5c0-1.2,0-2.4,0-3.6c0-2.4,0-5-0.1-7.4c-0.1-4.3-0.3-8.6-0.5-12.8l-0.2-3.7c-0.2-5.4-0.2-10.8-0.1-15.8
			c0.1-4.1,0.2-8.3,0.2-12.4c0.1-5-0.1-10.4-0.4-16.8c-0.3-5.3-0.4-34.2-0.3-40.2c0.1-5.8,0.1-11.7,0.1-17.4v-5.6c0-0.5,0-15,0-15.5
			V42c-0.2-4.8-0.4-5.5-0.2-10.3c0-1.6,0.1-3.2,0.2-4.8c0.1-2.5,0.2-5.2,0.2-7.8c0.1-4.6,0.1-8.8-0.3-12.9c-0.1-1.1-0.3-2.3-0.6-3.6
			c-0.3-1.1-0.8-1.6-2-1.6c-0.1,0-0.2,0-0.3,0c-0.2,0-0.5,0-0.7,0c-1.7-0.3-3.3-0.3-5-0.4h-0.8c-5,0-10.1-0.1-15.1-0.1h-0.6
			c-1.1,0-2.2,0-3.4,0c-4.7,0.3-10,0.3-16.4,0c-1.3,0-2.7,0-4,0c-0.6,0-1.3,0-1.9,0s-1.2,0-1.8,0c-1.3,0-8.4,0-9.8,0
			c-0.9,0-1.9-0.1-2.8-0.1c-3-0.1-6.1-0.3-9.2-0.1c-1.3,0.1-2.7,0-4,0l-2-0.1c-3.3-0.1-6.8-0.2-10.2,0c-3.2,0.2-6.1,0.3-8.9,0.2
			c-2.5-0.1-5.8-0.1-9.2,0.2c-3.1,0.3-6.2,0.3-9.2,0.2c-2.9-0.1-5.3-0.1-7.5,0C251.3,1,247.5,1,244.6,1h-0.7c-1.9,0-3.8,0-5.7,0.1
			L236,1.2c-3.5,0.2-50.2,0.4-53.8,0.4c-1.1,0-2.2,0.1-3.3,0.1h-0.3c-1.6,0.1-3.1,0.2-4.7,0.2c-3.2,0.2-19,0.3-22.2,0.4h-2.4
			c-7.2,0.1-14.6,0.2-21.9,0c-1,0-2,0-3,0c-0.5,0-1,0-1.5,0c-0.6,0-1.3,0-1.9,0c-1.5,0-3,0-4.5,0h-0.3c-3.1-0.1-6.3-0.3-9.4-0.2
			c-2.5,0.1-5.4,0.1-8.3-0.2C94.9,1.6,52,1.4,47.6,1.5c-1.7,0-3.4,0-5.1-0.1c-0.9,0-1.8-0.1-2.7-0.1h-0.2c-1.1,0-2.2,0-3.2,0
			c-0.9,0-1.9,0.1-2.8,0.1c-3.6,0.2-7.3,0.4-11,0.3c-1.8,0-3.4,0.2-5,0.4c-1.9,0.2-3.9,0.5-5.9,0.5C9.5,2.8,7.5,3,5.4,3.1H4
			c-0.5,0-1,0.1-1.4,0.2C1.8,3.5,1,4.1,1.2,5.5c0.1,0.7,0.2,1.2,0.2,1.7c0,0.9,0,1.9,0.1,2.8v4.5c0.1,6.6,0.1,13.2,0.2,19.8
			c0,1.2-0.1,2.3-0.1,3.5V38c-0.1,1.1-0.1,2.2-0.2,3.3c-0.1,0.8-0.1,15.8-0.2,16.6c-0.3,4.2-0.5,4.1-0.7,8.3
			c-0.4,6.7-0.5,35.5-0.4,40.4c0.1,2.6,0.1,5.3,0.2,7.9c0.1,2.4,0.2,4.7,0.2,7.1c0.1,5.3,0.3,11.2,0.3,17.1c0,7.2,0,14.5,0,21.7
			c0,7,0,14,0,21c0,4.6,0.1,9.2,0.2,13.7l0.1,4.7c0.1,6.5,0.2,13.2,0.4,19.7c0.1,4.1,0.2,23.9,0.4,27.9c0.1,3.2,0.3,6.3,0.5,9.5
			c0.1,2,0.2,3.9,0.3,5.9c0.1,2.4,0.2,4.8,0.3,7.2l0.1,1.8c0,0.6,0.1,1.3,0.5,1.9c0.1,0.1,0.1,0.3,0.2,0.4l0.1,0.2
			c0.3,0.9,0.6,1.3,1.5,1.3c0.1,0,0.2,0,0.2,0c1.6-0.1,3.3-0.2,4.5-0.4c0.5,0,1-0.1,1.5-0.2c0.3,0,0.7-0.1,1-0.1
			c3.3-0.4,6.6-0.5,9.4-0.5c1.7,0,3.3,0,4.8-0.2c2.2-0.2,4.4-0.3,6.5-0.3h0.6c2.5,0,5.1-0.1,7.6-0.2c1.1,0,2.2-0.1,3.3-0.1
			c2.8-0.1,14.4-0.3,17.3-0.3c2.1,0,34.7-0.1,36.8-0.2h0.7c4.2-0.2,8.5-0.4,12.8-0.2c1,0,2,0,3,0c0.6,0,1.1,0,1.7,0
			c0.9,0,1.7,0,2.6,0c2.2,0,4.4,0,6.7,0c3.2,0.1,6.4,0.1,9.6,0.2c3.6,0.1,7.3,0.2,10.9,0.2c4.9,0.1,22.4,0.1,27.2,0.1h0.8
			c8,0,59,0,67.1-0.1c1.3,0,2.6,0,3.9-0.1c1,0,2.1-0.1,3.1-0.1c1.9,0,3.7,0,5.6-0.1c3.1,0,6.1,0,9.2-0.1l4.1-0.1
			c7.2-0.1,14.7-0.3,22.1-0.2c1.8,0,3.5,0,5.3,0c0.9,0,1.9,0,2.8,0c2.4,0,4.8,0,7.2,0h0.9c3.7,0,7.5,0.1,11.2,0.2
			c2.2,0,10.6,0.1,13.2,0.2c3.5,0.2,6.6,0.2,9.6,0c2.9-0.2,5.8-0.2,8.6,0c3,0.2,5.6,0.2,8,0c5.5-0.4,10.1-0.4,14.4,0.1
			c2.2,0.2,4.4,0.2,6.4-0.1c0.7-0.1,1.5-0.2,2.2-0.2h0.1c0.9,0,1.7-0.3,2.5-0.6l0.5-0.2L383,271.3z M358.1,163.3
			c0.1,2,0.1,3.9,0.2,5.9c0.1,2.7,0.2,5.5,0.3,8.2c0.1,2,0.1,4,0.1,6c0,1.2,0,2.4,0,3.6c0,1.9,0.1,3.9,0.1,5.8
			c0.1,4.7,0.1,9.6,0.3,14.4c0.1,4.7,0.4,9.4,0.6,14l0.2,4.1c0.1,1.4,0.2-1,0.3,0.4c0.1,0.7,0.1,21,0.2,21.7c0,0.5,0.1,1,0.1,1.5
			v0.6c-1.6,0.3-3.1,0.4-4.6,0.4c-2.3,0-4.5,0.1-6.8,0.1c-3.8,0.1-7.5,0.2-11.3,0.2c-2.8,0-5.6,0-9,0h-0.2c-2.7,0-11.3-0.1-14.1,0.1
			c-1.3,0.1-2.6,0.1-4,0.1c-4.8-0.1-9.7,0.1-14.4,0.2c-2.1,0.1-4.2,0.2-6.4,0.2c-1.7,0-3.4,0.1-5.1,0.1c-1.6,0-3.3,0-4.9,0.1
			c-3.6,0.1-7.5,0.1-12-0.1c-0.9,0-1.9,0-3,0c-2.7,0-5.5,0.1-8.2,0.2l-12.9,0.3c-0.6,0-1.2,0-1.8,0c-1.4,0-2.9,0.1-4.4,0.1
			c-4.8-0.1-52.7,0.1-57.5,0.3h-1.1c-1.1,0.1-2.3,0.1-3.4,0.1h-2.3c-3.8,0-20.2,0.1-24,0.1c-1.2,0-2.4,0-3.6,0c-0.8,0-1.7,0-2.5,0
			c-2.2,0-4.5,0-6.7,0h-1.1c-0.7,0-1.5,0-2.2,0c-1.1,0-2.2,0-3.3,0c-3.5,0-7.1,0-10.6-0.1c-2.3,0-4.6-0.1-6.9-0.1
			c-2.1,0-4.2-0.1-6.3-0.1c-1.3,0-2.7,0-4,0h-4.1c-1.7,0-33.9,0-35.7,0c-3,0-13.9,0-16.1,0.2c-2,0.1-4,0.2-5.9,0.2
			c-1.2,0-2.3,0.1-3.5,0.1c-1.5,0.1-3,0.1-4.5,0.2c-1.2,0.1-2.5,0.1-3.7,0.2c-0.5,0-1,0-1.5,0h-0.5h-0.1c-0.6-0.7-0.9-1.6-0.9-2.8
			c0-16.3-0.1-46.6-0.3-61.4c-0.1-10.7-0.3-18.9-0.6-26.6c-0.4-10.3-0.4-20.4-0.3-28.1c0-2.1,0-4.2,0-6.3c0-3.1,0-6.4,0-9.6
			c0.1-4.7,0.2-32.9,0.3-37.5c0.1-2.5,0.1-5.1,0.2-7.6c0.1-2.4,0.1-4.6,0.1-6.7c0-5,0-19.8,0-24.9v-9.6c0-0.5,0-1,0-1.5v-0.5
			c0.6-0.2,1.1-0.3,1.6-0.3c0.4,0,0.8,0,1.3,0c2.9,0.1,6,0.3,9,0.1c0.4,0,0.7,0,1.2,0l3.7,0.1c3.7,0.1,15.9,0.2,19.6,0.4
			c1.7,0.1,33.9,0.2,35.6,0.3c1.2,0.1,2.4,0.1,3.7,0.2c1.5,0.1,3,0.1,4.5,0.1c3.9,0,7.9,0,11.8,0c1.2,0,2.5-0.1,3.7-0.1
			c0.8,0,1.5-0.1,2.3-0.1c0.9,0,1.7,0,2.6-0.1c0.8,0,1.6,0,2.4,0c1.8,0,3.6-0.1,5.4-0.2l3.5-0.1c0.6,0,1.2,0,1.8,0
			c3.8,0,7.6-0.2,11.3-0.5h0.7c2.1-0.1,4.2-0.2,6.3-0.3l14.4-0.1c1.1,0,2.2-0.1,3.3-0.1c1.9-0.1,3.9-0.1,5.8-0.2
			c2.7-0.1,48.3-0.3,51-0.5c2.6-0.2,5.1-0.3,7.7-0.4c2.1-0.1,4.2-0.2,6.3-0.3c1.5-0.1,3.1-0.1,4.6-0.2c1,0,2-0.1,2.9-0.2l1.6-0.1
			c0.3,0,0.6,0,0.9,0c2.9,0,5.9-0.1,8.8-0.1c5.4-0.1,10.9-0.2,16.4,0c2.2,0.1,4.5,0.1,6.7,0.1c1.3,0,2.5,0,3.7,0c1.3,0,2.7,0,4,0.1
			c1.2,0,2.3,0,3.5,0.1c1.3,0,2.5,0,3.8,0h0.4c2.9,0,5.9,0,8.8,0c1.7,0,3.4,0,5.1,0c0.4,0,0.8,0,1.2,0c0.5,0,1.1,0,1.6,0h9
			c4.9,0,9.9,0.1,14.9,0.2c3.2,0.1,6.4,0,9.5-0.2c0.8-0.1,1.5-0.1,2.2,0.4v0.1c0,0.3,0,0.6,0,0.9c0,2.2,0.1,4.4,0.1,6.5
			c0.1,4.7,0.2,19.4,0.3,24.2c0.4,10.4,0.5,44.3,0.6,53.2c0.1,5.7,0.3,11.3,0.6,18c0.1,3.2,0.3,6.4,0.5,9.5s0.4,6.2,0.5,9.3
			c0.1,3.2,0.2,6.5,0.3,9.6C358,159.9,358,161.6,358.1,163.3"/>
	</g>
	<g>
		<defs>
			<rect id="SVGID_00000093171468096792928070000013424159526500070567_" width="387.8" height="275.4"/>
		</defs>
		<clipPath id="SVGID_00000103241938941187153880000016352026236562232243_">
			<use xlink:href="#SVGID_00000093171468096792928070000013424159526500070567_"  style="overflow:visible;"/>
		</clipPath>
		<path style="clip-path:url(#SVGID_00000103241938941187153880000016352026236562232243_);fill:#54A954;" d="M377.4,73.3
			c0,2.2,0,4.4-0.1,6.6c0,1.1,0,25.6-0.1,26.7c-0.1,5.5,0.2,10.9,0.5,16.9c0.4,7.2,0.4,13.8,0.3,20c-0.2,7.4-0.4,15.4-0.1,23.5
			c0.1,2.4,0.2,4.8,0.3,7.2c0.1,2.2,0.2,4.3,0.3,6.5c0.1,3,0.2,6.1,0.2,9.9c0.1,8.4,0.1,16.8,0.1,25.1c0,5.9,0,27.5,0,33.4
			c0,6.3,0.3,12.7,0.7,18.7l0,0c0,0,0-0.1-0.1-0.1"/>
	</g>
	<g>
		<defs>
			<rect id="SVGID_00000016036797422758521140000016168363046953292961_" width="387.8" height="275.4"/>
		</defs>
		<clipPath id="SVGID_00000116193047225628537400000008396930423976996501_">
			<use xlink:href="#SVGID_00000016036797422758521140000016168363046953292961_"  style="overflow:visible;"/>
		</clipPath>
		<path style="clip-path:url(#SVGID_00000116193047225628537400000008396930423976996501_);fill:#B6D3A9;" d="M7.9,6.2
			c0.8,0,1.7-0.1,2.5-0.1C11.6,6,12.8,6,14,5.9s2.4-0.2,3.6-0.4c1.7-0.3,3.5-0.3,5.3-0.4h0.5c0.9,0,1.8,0,2.6-0.1
			c1.3,0,2.6-0.1,4-0.1c0.7,0,1.3-0.1,2-0.1c0.8-0.1,1.7-0.1,2.5-0.1c2.2,0,4.4,0,6.6,0h2.4c0.5,0,1.1,0,1.6,0c1.1,0,2.2,0.1,3.3,0
			c2.6-0.1,13.8,0,16.4,0.2L97.3,5c2.3,0.1,4.7,0.3,7.1,0.3h0.1h1.9c2.8,0,5.8,0,8.7,0.2c1.5,0.1,3,0.1,4.4,0.1c0.6,0,1.3,0,1.9,0
			h2.8c2.5,0,5,0.1,7.6,0.1c2.2,0,4.5,0,6.7,0h1c0.9,0,1.8,0,2.7,0c1.4,0,2.8,0,4.2,0c4.8,0,22.4-0.1,28.4-0.5
			c1.9-0.1,3.9-0.2,5.8-0.2c1.1,0,45.2-0.1,46.3-0.1c2.6-0.1,5.1-0.2,7.7-0.3l5.1-0.2h0.1c0.7,0,1.5-0.1,2.3,0
			c4.4,0.1,8.8,0,13.1-0.2h0.9c1.5,0,2.7-0.1,3.9,0c4.7,0.2,9.5,0.1,14.4-0.3c1.3-0.1,2.9-0.2,4.6-0.1c3.3,0.2,6.5,0,9.7-0.1
			c0.8,0,1.5-0.1,2.3-0.1c2.2-0.1,4.4-0.1,6.4-0.1c1.7,0,3.3,0,5,0.1c1.9,0,3.9,0.1,5.8,0.1c2.3,0,5.4,0,8.5,0.2
			C318.3,4,320,4,321.5,4c0.8,0,7.3,0,8.1,0l4.8,0.1c1.9,0,3.8,0.1,5.7,0.1c0.5,0,1.1,0,1.6,0c1.4,0,2.9,0.1,4.4,0
			C351.1,4,356.2,4,361,4c2.4,0,4.8,0,7.2,0c1.8,0,3.5,0,5.3,0h0.1c0.5,0,1,0,1.4,0.2c-4.5,4.8-9.4,9.4-14.1,13.8
			c-1.9,1.8-3.8,3.5-5.7,5.3c-4.6,0.5-9.2,0.4-13.8,0.4c-3.3,0-6.7-0.1-10-0.1h-3.6c-0.4,0-6.6,0-7,0c-4.2,0.2-8.5,0.2-12.6,0.2
			c-2.3,0-4.7,0-7,0c-4.3,0.1-8.7,0-12.9-0.1c-1.5,0-3.1-0.1-4.6-0.1l-3.3-0.1c-5.1-0.1-10.5-0.2-15.7,0c-1.2,0-2.5,0-3.9,0
			c-3.2-0.1-6.4,0.2-9.2,0.4c-1,0.1-1.9,0.1-2.7,0.1h-0.6c-3.6,0-7.3,0.3-10.9,0.5c-1.2,0.1-2.4,0.2-3.6,0.2c-0.4,0-0.8,0-1.2,0.1
			l-3.7,0.2c-2.1,0.1-47.1,0.2-49.2,0.3c-2,0.1-3.9,0.2-5.9,0.3c-1.6,0.1-15.7,0.1-17.2,0.2s-2.9,0.1-4.4,0.2
			c-1.8,0.1-3.5,0.2-5.3,0.3c-3.2,0.1-6.7,0.3-10.6,0.4c-1.4,0-2.8,0.1-4.2,0.1c-2.5,0-5.1,0.1-7.6,0.2c-3.7,0.2-7.6,0.2-11.2,0.2
			c-2.5,0-5.2,0-7.8,0c-1,0-2.1,0-3.1-0.1c-1.8-0.1-3.7-0.2-5.5-0.3c-2.5-0.1-44.1-0.2-46.6-0.4c-0.7,0-1.4,0-2.1,0
			c-0.5,0-1.1,0-1.6,0c-1.1,0-2.2-0.1-3.3-0.1c-0.9,0-1.8-0.1-2.7-0.1c-1.3,0-2.7-0.1-4-0.1c-2.8,0-5.6,0-8.4,0h-0.4
			c-0.1,0-0.3,0-0.4,0c-0.6,0-1.2,0-1.8,0.1c-0.4,0-0.7-0.1-1.1-0.4c-1.1-0.8-2.1-1.8-3.1-2.9c-0.4-0.5-0.8-0.9-1.2-1.4
			c-0.7-0.8-1.4-1.5-2-2.3l-0.5-0.6c-1.1-1.3-2.3-2.7-3.4-4.1c-2-2.6-4-4.7-6-6.5L7.9,7.4C7.5,7.1,7,6.7,6.8,6.3
			C7.1,6.1,7.5,6.2,7.9,6.2"/>
	</g>
	<g>
		<defs>
			<rect id="SVGID_00000168829992865694893230000007320918913851178383_" width="387.8" height="275.4"/>
		</defs>
		<clipPath id="SVGID_00000031909630520749956150000014700933341912210848_">
			<use xlink:href="#SVGID_00000168829992865694893230000007320918913851178383_"  style="overflow:visible;"/>
		</clipPath>
		<path style="clip-path:url(#SVGID_00000031909630520749956150000014700933341912210848_);fill:#B6D3A9;" d="M379.4,267.9
			c0-0.1-0.1-0.1-0.1-0.2c-0.9-1-1.8-2-2.7-3c-2.5-2.9-5.2-5.8-7.6-8.8c-0.5-0.6-0.9-1.2-1.4-1.8l-1.4-1.9c-0.6-0.8-1.2-1.6-1.8-2.4
			c-0.5-0.6-0.8-1.3-0.8-2.1c-0.1-2.6-0.3-20.9-0.5-23.5c-0.2-4.1-0.5-8.1-0.7-12.2c-0.3-6.4-0.4-13-0.5-19.3
			c-0.1-6.6-0.2-12.3-0.3-17.7v-0.5c-0.2-6.9-0.3-13.9-0.6-20.9c-0.2-4.4-0.4-8.8-0.6-13.1c-0.1-2.3-0.2-4.6-0.4-6.9l-0.1-1.5
			c-0.1-3-0.3-6.1-0.4-9.1c-0.1-3.9-0.2-7.9-0.3-11.8v-2.5c0-2.5-0.1-28.4-0.1-30.9c-0.1-3.6-0.1-7.3-0.2-10.9
			c-0.1-7.1-0.3-23.9-0.5-31l-0.1-2.4c0-1.7-0.1-3.5-0.1-5.2l-0.1-3c0-0.2,0-0.4,0-0.6v-0.2c1.7-1.6,3.3-3.1,5-4.7
			c4.6-4.3,9.4-8.7,13.8-13.6c0.1,0.2,0.1,0.3,0.1,0.4c0.4,5.7,0.4,11,0.2,16.1l-0.1,1.5c-0.2,4.4-0.4,9-0.3,13.5
			c0,1.2,0.1,2.4,0.1,3.7c0.1,2.1,0.1,14.1,0.2,16.3"/>
	</g>
	<g>
		<defs>
			<rect id="SVGID_00000147181701555408983320000000936421682967711399_" width="387.8" height="275.4"/>
		</defs>
		<clipPath id="SVGID_00000071545353877870824930000010529094091780784029_">
			<use xlink:href="#SVGID_00000147181701555408983320000000936421682967711399_"  style="overflow:visible;"/>
		</clipPath>
		<path style="clip-path:url(#SVGID_00000071545353877870824930000010529094091780784029_);fill:#B6D3A9;" d="M376.6,269.9
			c-1.2,0.2-2.6,0.2-4.3,0.1c-0.7,0-1.5-0.1-2.2-0.2c-2.8-0.2-5.6-0.4-8.5-0.3c-0.5,0-1,0.1-1.5,0.1c-0.9,0.1-1.8,0.1-2.6,0.1
			c-2.7,0-5.5,0.1-8.2,0c-3.5-0.1-7-0.1-10.3,0.1c-3.8,0.2-13.4,0-17.4-0.2c-1.3-0.1-2.6-0.1-3.8-0.1h-1.4
			c-4.3-0.1-8.6-0.2-12.9-0.2c-1,0-2,0-3,0h-1.2h-3.2c-2.9,0-5.8,0-8.7,0c-2.4,0-4.7,0-7.1,0.1h-2.8c-2.7,0-5.4,0.1-8.1,0.1
			c-1.6,0-3.3,0.1-4.9,0.1l-3.2,0.1c-0.6,0-1.3,0-1.9,0h-6.1c-6.6,0-13.2,0.1-19.8,0.1h-0.9c-8.3,0-72.3,0.1-80.8,0
			c-3.8,0-7.8-0.1-11.5-0.2c-1.5,0-3-0.1-4.5-0.1c-1.3,0-2.7-0.1-4-0.1c-5.3-0.1-10.7-0.2-16.1-0.1c-1,0-2.1,0-3.1,0h-0.8
			c-4.7,0-8.4,0-11.8,0.2c-2.9,0.1-36.3,0.2-39.1,0.2c-1.6,0-11.9,0.1-13.5,0.1c-0.9,0-1.8,0.1-2.7,0.1c-0.9,0.1-1.9,0.1-2.8,0.1
			c-2.7,0.1-5.2,0.1-7.6,0.1c-3.1,0-6.2,0.2-8.5,0.4c-1.6,0.1-3.3,0.1-4.6,0.1H21c-3.7,0-7.4,0.3-11,0.8c-0.3,0-0.6,0.1-1,0.1H8.8
			l0,0l12.6-13.4c0.8-0.9,1.5-1.7,2.2-2.5c0.3-0.3,0.5-0.4,0.8-0.4c0.1,0,0.1,0,0.2,0c2.1,0.2,4.3,0.1,6.3-0.1
			c1.2-0.1,2.4-0.2,3.6-0.2c0.6,0,1.3,0,1.9-0.1c0.4,0,0.8,0,1.2-0.1l2.8-0.1c2.6-0.1,5.2-0.2,7.8-0.3c1.5,0,11.5,0,12.9,0
			c1.2,0,2.3,0,3.5,0c1,0,32.4,0,33.4,0c2.4,0,4.7,0,7.1,0.1h5.7c0.4,0,0.8,0,1.2,0c0.5,0,1,0,1.5,0c5.6,0,12.2-0.1,18.5,0.1
			c0.8,0,1.7,0,2.5,0c0.5,0,1,0,1.6,0c1.9,0,3.8,0,5.7,0c1.2,0,2.4,0,3.7,0c2.2,0,4.3,0,6.5,0c3.9,0,19.6-0.1,22.5-0.1
			c2,0,4.1-0.1,6.1-0.2c1.6-0.1,46.2-0.1,47.8-0.1c1.1,0,2.2,0,3.3,0c0.7,0,1.5,0,2.2,0c2.8,0,5.7-0.1,8.5-0.1c0.6,0,1.2,0,1.8,0
			s1.2,0,1.8,0c1.5,0,3.1-0.1,4.6-0.1c3.7-0.1,7.6-0.1,11.4-0.2c2.4,0,4.9,0,7.3,0.1c1.2,0,2.4,0,3.6,0c1.3,0,2.7,0,4.1,0
			c0.8,0,1.6,0,2.3-0.1c1.2,0,2.4-0.1,3.6-0.1c6.1,0,12.2-0.2,17.7-0.5c1.9-0.1,3.8-0.1,5.5-0.1c3.8,0,7.8,0,11.8-0.2
			c1.2-0.1,8.2,0,9.4,0c3.6,0.1,7.5,0.1,11.8,0c1.9-0.1,3.8-0.1,5.7-0.1c1.4,0,2.8,0,4.2-0.1c3.7-0.1,6.6-0.2,9.3-0.3
			c0.8,0,1.6-0.2,2.5-0.3c0.4-0.1,0.7-0.1,1.1-0.2c0.4,0.6,0.9,1.1,1.3,1.7c1.1,1.4,2.2,2.8,3.3,4.2c1.7,2.1,3.3,4.1,5,6
			c0.6,0.7,1.2,1.3,1.8,2c1.1,1.2,2.2,2.3,3.1,3.6C376.7,269.8,376.7,269.8,376.6,269.9"/>
	</g>
	<g>
		<defs>
			<rect id="SVGID_00000028303087198346486590000016817872647248759226_" width="387.8" height="275.4"/>
		</defs>
		<clipPath id="SVGID_00000165933183949621661100000018433283812839866280_">
			<use xlink:href="#SVGID_00000028303087198346486590000016817872647248759226_"  style="overflow:visible;"/>
		</clipPath>
		<path style="clip-path:url(#SVGID_00000165933183949621661100000018433283812839866280_);fill:#B6D3A9;" d="M6.2,269.5
			c-0.1-1.3-0.1-2.5-0.2-3.8c-0.1-1.9-0.2-3.8-0.3-5.8c-0.2-3.3-0.4-6.7-0.5-10L5,246v-19.9c0-0.2,0-0.4,0-0.5
			c0.5,18.4,0.6,21.1-0.1,0.4c-0.1-2.6-0.2-5.3-0.2-7.9c0-7.6-0.2-15.3-0.5-22.7l-0.1-2.3C4,190,4,186.7,4,183.6v-0.9
			c0-5.1,0-10.2,0-15.4c0-9.6,0-19.3-0.1-28.9c0-7.3-0.2-13.7-0.4-19.8c-0.3-9.5-0.4-40.3-0.1-47.2c0.1-3,0.3-6.1,0.5-9.1
			C4,61,4.1,59.7,4.1,58.4l0.1-15.8c0.1-1.6,0.2,1.1,0.3-0.5c0.4-4.1,0.3-8.3,0.3-12.3v-0.9c0-5,0-10-0.1-15c0-0.9,0-1.9-0.1-2.8
			c0-0.6,0-1.1-0.1-1.7c0-0.2,0-0.4,0-0.7c2.4,2.1,4.8,4.4,6.8,7.1c1.1,1.4,2.3,2.8,3.5,4.2l1,1.2c1,1.2,2,2.3,2.9,3.3
			c0.7,0.7,1.4,1.5,2.1,2.2l0.8,0.9v2.8c0,2.4,0,4.9,0,7.3c0,5.5,0,21,0,26.7c0,3.9-0.1,7.9-0.2,11.7c-0.1,2.2-0.1,27.8-0.2,30
			c-0.1,2.9-0.1,5.9-0.1,9c0,4.8-0.1,9.6-0.1,14.4c0,5.9-0.1,11.9-0.1,17.8c0,2.9,0.1,5.8,0.3,8.7l0.1,2.1c0.1,1.8,0.1,3.5,0.2,5.3
			v1.9c0,2,0.1,3.9,0.2,5.9c0.1,4.5,0.2,9.3,0.3,13.9c0.1,6.4,0.1,12.9,0.1,19.2c0,2.9,0,5.8,0,8.7c0,5,0,6.2,0.1,11.2
			c0,0.5,0,1.1,0,1.6s0,20.5,0,21.1c0,0.4,0,0.8,0,1.2c0,1.7,0.1,3.5-0.2,5.4c-4.8,5.1-10.3,11.1-15.9,16.8
			C6.2,269.9,6.2,269.7,6.2,269.5"/>
	</g>
</g>
</svg>
