<?xml version="1.0" encoding="utf-8"?>
<!-- Generator: Adobe Illustrator 27.5.0, SVG Export Plug-In . SVG Version: 6.00 Build 0)  -->
<!DOCTYPE svg PUBLIC "-//W3C//DTD SVG 1.1//EN" "http://www.w3.org/Graphics/SVG/1.1/DTD/svg11.dtd" [
	<!ENTITY ns_extend "http://ns.adobe.com/Extensibility/1.0/">
	<!ENTITY ns_ai "http://ns.adobe.com/AdobeIllustrator/10.0/">
	<!ENTITY ns_graphs "http://ns.adobe.com/Graphs/1.0/">
	<!ENTITY ns_vars "http://ns.adobe.com/Variables/1.0/">
	<!ENTITY ns_imrep "http://ns.adobe.com/ImageReplacement/1.0/">
	<!ENTITY ns_sfw "http://ns.adobe.com/SaveForWeb/1.0/">
	<!ENTITY ns_custom "http://ns.adobe.com/GenericCustomNamespace/1.0/">
	<!ENTITY ns_adobe_xpath "http://ns.adobe.com/XPath/1.0/">
]>
<svg version="1.1" id="Camada_1" xmlns:x="&ns_extend;" xmlns:i="&ns_ai;" xmlns:graph="&ns_graphs;"
	 xmlns="http://www.w3.org/2000/svg" xmlns:xlink="http://www.w3.org/1999/xlink" x="0px" y="0px" viewBox="0 0 300.2 168.1"
	 style="enable-background:new 0 0 300.2 168.1;" xml:space="preserve">
<style type="text/css">
	.st0{fill:#1D1D1B;}
	.st1{clip-path:url(#SVGID_00000163040435803324279710000002235408932747230337_);fill:#042B3A;}
	.st2{clip-path:url(#SVGID_00000146483698574761815560000014590445107499845505_);fill:#FFDB37;}
	.st3{clip-path:url(#SVGID_00000083047087923265510950000008739684935831979942_);fill:#29B2E8;}
	.st4{clip-path:url(#SVGID_00000075127660680932895720000005396856037525345690_);fill:#EB569A;}
	.st5{clip-path:url(#SVGID_00000137089629682054391190000009090324931916021415_);fill:#EB569A;}
	.st6{clip-path:url(#SVGID_00000134945822297838959550000001719433469206652544_);fill:#FFDB37;}
	.st7{clip-path:url(#SVGID_00000172404915370295634380000001639248831113835936_);fill:#33AA9B;}
	.st8{clip-path:url(#SVGID_00000136403887363186741210000000331702351441467575_);fill:#1FA95E;}
	.st9{clip-path:url(#SVGID_00000160154474988167920190000012490462836630970521_);fill:#29B2E8;}
	.st10{clip-path:url(#SVGID_00000140733167492610407160000008978459993844943548_);fill:#FFDB37;}
	.st11{clip-path:url(#SVGID_00000150802977464067516070000010209094100475984019_);fill:#EB5989;}
	.st12{clip-path:url(#SVGID_00000085936240873049769970000008052101592597451917_);fill:#1FA95E;}
	.st13{clip-path:url(#SVGID_00000023975639239007904230000009612477222069705654_);fill:#33AA9B;}
	.st14{clip-path:url(#SVGID_00000006689519154630708550000006977194242222110619_);fill:#FFDB37;}
	.st15{clip-path:url(#SVGID_00000096022573482851017100000018269296984341370754_);fill:#29B2E8;}
	.st16{clip-path:url(#SVGID_00000107585159777769068690000000656066695264058269_);fill:#EB569A;}
	.st17{clip-path:url(#SVGID_00000108294043065503024640000004114447175102236297_);fill:#33AA9B;}
	.st18{clip-path:url(#SVGID_00000105410726021721026370000002336011627764972191_);fill:#EB5989;}
	.st19{clip-path:url(#SVGID_00000045596168181768944190000017252651294945830828_);fill:#33AA9B;}
	.st20{clip-path:url(#SVGID_00000005985848509061077370000012920915612085071235_);fill:#1FA95E;}
	.st21{clip-path:url(#SVGID_00000081649982540008981020000012429297404378702487_);fill:#FFDB37;}
	.st22{clip-path:url(#SVGID_00000083807098039382377900000012879762963381929884_);fill:#EB5989;}
	.st23{clip-path:url(#SVGID_00000160887775829041420590000000954068691627764644_);fill:#33AA9B;}
	.st24{fill:#832C87;stroke:#832C87;stroke-width:0.5;}
</style>
<metadata>
	<sfw  xmlns="&ns_sfw;">
		<slices></slices>
		<sliceSourceBounds  bottomLeftOrigin="true" height="168.1" width="300.3" x="0" y="0"></sliceSourceBounds>
	</sfw>
</metadata>
<path class="st0" d="M42.7,32.3c0.2,0,0.3,0.1,0.4,0.1c0.1,0.1,0.1,0.2,0.1,0.3s0,0.2-0.1,0.3s-0.2,0.1-0.4,0.1
	c-0.1,0-0.3,0-0.3-0.1c-0.1-0.1-0.1-0.2-0.1-0.3s0-0.2,0.1-0.3C42.4,32.4,42.5,32.3,42.7,32.3z"/>
<g>
	<g>
		<g>
			<defs>
				<rect id="SVGID_1_" x="192.7" width="107.6" height="168.1"/>
			</defs>
			<clipPath id="SVGID_00000114058781766559079670000007314121854210442932_">
				<use xlink:href="#SVGID_1_"  style="overflow:visible;"/>
			</clipPath>
			<path style="clip-path:url(#SVGID_00000114058781766559079670000007314121854210442932_);fill:#042B3A;" d="M294.4,161.8
				c-6,6.5-18.1,9-32.7,2.2c-0.3-0.1-0.5-0.2-0.7-0.3c-13.9-6.6-15.6-11.6-25.4-23.4c-2.8-3.3-5.6-7.5-9.9-11.6
				c-2.1-2-4.6-4-7.6-5.9c-0.6-0.4-1.3-0.8-2-1.2c-1.1-0.4-2.1-0.9-3.1-1.3c-29.8-13.2-19.2-31.4-14.8-42.7c0.7-1.9,1.3-3.5,1.4-5
				c0.5-4.2,0.6-15.2,0.6-26.8c0-3.1,0-6.3-0.1-9.4c-0.1-12.2-0.4-23.2-0.4-25.1c0,0.6,0.9,1.1,2.1,1.1h40.5c1.1,0,2-0.4,2.1-1
				c0.2,2.1,1.4,13,2.8,25.8l0,0c0.3,2.3,0.5,4.6,0.8,7c1.9,16.3,4,33.5,5.2,38.3c2.7,11.1,17.5,27,28.7,37.8c2.8,2.7,5.4,5.1,7.5,7
				c3.4,3.1,5.7,5,5.7,5c0.5,0.5,0.9,1,1.3,1.5C303.2,142.3,300,155.8,294.4,161.8"/>
		</g>
		<g>
			<defs>
				<rect id="SVGID_00000031887097593723628870000008278501667877416883_" x="192.7" width="107.6" height="168.1"/>
			</defs>
			<clipPath id="SVGID_00000074438723577745744340000008051710939284488836_">
				<use xlink:href="#SVGID_00000031887097593723628870000008278501667877416883_"  style="overflow:visible;"/>
			</clipPath>
			<path style="clip-path:url(#SVGID_00000074438723577745744340000008051710939284488836_);fill:#FFDB37;" d="M244.4,11.3
				c0,0.1,0,0.1,0,0.2c-0.1,0.6-0.9,1-2.1,1h-40.5c-1.2,0-2-0.5-2.1-1.1l0.2-1.3l0.7-4.2c0.1-0.7,0.2-1.8,0.2-2.4l-0.1-2.2
				c0-0.7,1-1.2,2.2-1.2h38.3c1.3,0,2.3,0.5,2.2,1.2l-0.1,2.6c0,0.7,0,1.8,0.2,2.4L244.4,11.3z"/>
		</g>
		<g>
			<defs>
				<rect id="SVGID_00000151522110635581626110000000298424191539893664_" x="192.7" width="107.6" height="168.1"/>
			</defs>
			<clipPath id="SVGID_00000065753524504671010300000002619216299117695662_">
				<use xlink:href="#SVGID_00000151522110635581626110000000298424191539893664_"  style="overflow:visible;"/>
			</clipPath>
			<path style="clip-path:url(#SVGID_00000065753524504671010300000002619216299117695662_);fill:#29B2E8;" d="M217.8,20.4
				c0,2.9-2.3,5.2-5.2,5.2s-5.2-2.3-5.2-5.2s2.3-5.2,5.2-5.2C215.5,15.2,217.8,17.6,217.8,20.4"/>
		</g>
		<g>
			<defs>
				<rect id="SVGID_00000064351747989642238780000009692205722411334559_" x="192.7" width="107.6" height="168.1"/>
			</defs>
			<clipPath id="SVGID_00000051346411173402070160000007925513403944720546_">
				<use xlink:href="#SVGID_00000064351747989642238780000009692205722411334559_"  style="overflow:visible;"/>
			</clipPath>
			<path style="clip-path:url(#SVGID_00000051346411173402070160000007925513403944720546_);fill:#EB569A;" d="M238.6,20.4
				c0,2.9-2.3,5.2-5.2,5.2s-5.2-2.3-5.2-5.2s2.3-5.2,5.2-5.2C236.3,15.2,238.6,17.6,238.6,20.4"/>
		</g>
		<g>
			<defs>
				<rect id="SVGID_00000163033080461525516810000008318140383586007993_" x="192.7" width="107.6" height="168.1"/>
			</defs>
			<clipPath id="SVGID_00000005264470203729927150000003031317971487752087_">
				<use xlink:href="#SVGID_00000163033080461525516810000008318140383586007993_"  style="overflow:visible;"/>
			</clipPath>
			<path style="clip-path:url(#SVGID_00000005264470203729927150000003031317971487752087_);fill:#EB569A;" d="M207.5,41.2
				c0,2.9-2.3,5.2-5.2,5.2c-0.8,0-1.5-0.2-2.1-0.5c0-3.1,0-6.3-0.1-9.4c0.7-0.3,1.4-0.5,2.2-0.5C205.1,36,207.5,38.3,207.5,41.2"/>
		</g>
		<g>
			<defs>
				<rect id="SVGID_00000047048023017798812710000009971382010552134530_" x="192.7" width="107.6" height="168.1"/>
			</defs>
			<clipPath id="SVGID_00000174594633790871737740000013546076014847804065_">
				<use xlink:href="#SVGID_00000047048023017798812710000009971382010552134530_"  style="overflow:visible;"/>
			</clipPath>
			<path style="clip-path:url(#SVGID_00000174594633790871737740000013546076014847804065_);fill:#FFDB37;" d="M228.2,41.2
				c0,2.9-2.3,5.2-5.2,5.2s-5.2-2.3-5.2-5.2s2.3-5.2,5.2-5.2S228.2,38.3,228.2,41.2"/>
		</g>
		<g>
			<defs>
				<rect id="SVGID_00000027576223581234503400000005816952909289559702_" x="192.7" width="107.6" height="168.1"/>
			</defs>
			<clipPath id="SVGID_00000034056928975506402240000008553785706188686746_">
				<use xlink:href="#SVGID_00000027576223581234503400000005816952909289559702_"  style="overflow:visible;"/>
			</clipPath>
			<path style="clip-path:url(#SVGID_00000034056928975506402240000008553785706188686746_);fill:#33AA9B;" d="M248,44.2
				c-0.9,1.3-2.5,2.1-4.2,2.1c-2.9,0-5.2-2.3-5.2-5.2s2.3-5.2,5.2-5.2c1.3,0,2.5,0.5,3.4,1.3l0,0C247.5,39.6,247.7,41.9,248,44.2"/>
		</g>
		<g>
			<defs>
				<rect id="SVGID_00000116947939844830604830000016878785309347998652_" x="192.7" width="107.6" height="168.1"/>
			</defs>
			<clipPath id="SVGID_00000027586051438953904610000009285175426962925709_">
				<use xlink:href="#SVGID_00000116947939844830604830000016878785309347998652_"  style="overflow:visible;"/>
			</clipPath>
			<path style="clip-path:url(#SVGID_00000027586051438953904610000009285175426962925709_);fill:#1FA95E;" d="M217.8,62
				c0,2.9-2.3,5.2-5.2,5.2s-5.2-2.3-5.2-5.2c0-2.9,2.3-5.2,5.2-5.2C215.5,56.8,217.8,59.1,217.8,62"/>
		</g>
		<g>
			<defs>
				<rect id="SVGID_00000054954499083586604430000014153899371085133473_" x="192.7" width="107.6" height="168.1"/>
			</defs>
			<clipPath id="SVGID_00000160898042751608908840000015243309403140990374_">
				<use xlink:href="#SVGID_00000054954499083586604430000014153899371085133473_"  style="overflow:visible;"/>
			</clipPath>
			<path style="clip-path:url(#SVGID_00000160898042751608908840000015243309403140990374_);fill:#29B2E8;" d="M238.6,62
				c0,2.9-2.3,5.2-5.2,5.2s-5.2-2.3-5.2-5.2c0-2.9,2.3-5.2,5.2-5.2C236.3,56.8,238.6,59.1,238.6,62"/>
		</g>
		<g>
			<defs>
				<rect id="SVGID_00000178883924236772565030000009945054838241723324_" x="192.7" width="107.6" height="168.1"/>
			</defs>
			<clipPath id="SVGID_00000044868449528490406960000000740184201736842124_">
				<use xlink:href="#SVGID_00000178883924236772565030000009945054838241723324_"  style="overflow:visible;"/>
			</clipPath>
			<path style="clip-path:url(#SVGID_00000044868449528490406960000000740184201736842124_);fill:#FFDB37;" d="M207.5,82.7
				c0,2.9-2.3,5.2-5.2,5.2s-5.2-2.3-5.2-5.2c0-2.9,2.3-5.2,5.2-5.2C205.1,77.5,207.5,79.9,207.5,82.7"/>
		</g>
		<g>
			<defs>
				<rect id="SVGID_00000173856975373105103680000002095082395441520028_" x="192.7" width="107.6" height="168.1"/>
			</defs>
			<clipPath id="SVGID_00000109028572655648559940000015149617401538791817_">
				<use xlink:href="#SVGID_00000173856975373105103680000002095082395441520028_"  style="overflow:visible;"/>
			</clipPath>
			<path style="clip-path:url(#SVGID_00000109028572655648559940000015149617401538791817_);fill:#EB5989;" d="M228.2,82.7
				c0,2.9-2.3,5.2-5.2,5.2s-5.2-2.3-5.2-5.2c0-2.9,2.3-5.2,5.2-5.2S228.2,79.9,228.2,82.7"/>
		</g>
		<g>
			<defs>
				<rect id="SVGID_00000052064842508831286950000006694844896766475960_" x="192.7" width="107.6" height="168.1"/>
			</defs>
			<clipPath id="SVGID_00000145039691124677167510000016328616221547239598_">
				<use xlink:href="#SVGID_00000052064842508831286950000006694844896766475960_"  style="overflow:visible;"/>
			</clipPath>
			<path style="clip-path:url(#SVGID_00000145039691124677167510000016328616221547239598_);fill:#1FA95E;" d="M249,82.7
				c0,2.9-2.3,5.2-5.2,5.2s-5.2-2.3-5.2-5.2c0-2.9,2.3-5.2,5.2-5.2S249,79.9,249,82.7"/>
		</g>
		<g>
			<defs>
				<rect id="SVGID_00000173859706787552445510000004989540158934975639_" x="192.7" width="107.6" height="168.1"/>
			</defs>
			<clipPath id="SVGID_00000035514535093473512590000013836817994020318904_">
				<use xlink:href="#SVGID_00000173859706787552445510000004989540158934975639_"  style="overflow:visible;"/>
			</clipPath>
			<path style="clip-path:url(#SVGID_00000035514535093473512590000013836817994020318904_);fill:#33AA9B;" d="M217.8,103.5
				c0,2.9-2.3,5.2-5.2,5.2s-5.2-2.3-5.2-5.2c0-2.9,2.3-5.2,5.2-5.2S217.8,100.6,217.8,103.5"/>
		</g>
		<g>
			<defs>
				<rect id="SVGID_00000133508602328157112430000010037553653144603817_" x="192.7" width="107.6" height="168.1"/>
			</defs>
			<clipPath id="SVGID_00000042720126081215279690000004860279820600647839_">
				<use xlink:href="#SVGID_00000133508602328157112430000010037553653144603817_"  style="overflow:visible;"/>
			</clipPath>
			<path style="clip-path:url(#SVGID_00000042720126081215279690000004860279820600647839_);fill:#FFDB37;" d="M238.6,103.5
				c0,2.9-2.3,5.2-5.2,5.2s-5.2-2.3-5.2-5.2c0-2.9,2.3-5.2,5.2-5.2S238.6,100.6,238.6,103.5"/>
		</g>
		<g>
			<defs>
				<rect id="SVGID_00000028282890498847427300000018255194500842635688_" x="192.7" width="107.6" height="168.1"/>
			</defs>
			<clipPath id="SVGID_00000095325846307717737660000007992031307698762163_">
				<use xlink:href="#SVGID_00000028282890498847427300000018255194500842635688_"  style="overflow:visible;"/>
			</clipPath>
			<path style="clip-path:url(#SVGID_00000095325846307717737660000007992031307698762163_);fill:#29B2E8;" d="M259.4,103.5
				c0,2.9-2.3,5.2-5.2,5.2c-2.9,0-5.2-2.3-5.2-5.2c0-2.9,2.3-5.2,5.2-5.2C257,98.3,259.4,100.6,259.4,103.5"/>
		</g>
		<g>
			<defs>
				<rect id="SVGID_00000005267584978121647940000010612810708476205468_" x="192.7" width="107.6" height="168.1"/>
			</defs>
			<clipPath id="SVGID_00000182503885712092268030000003915411037620054442_">
				<use xlink:href="#SVGID_00000005267584978121647940000010612810708476205468_"  style="overflow:visible;"/>
			</clipPath>
			<path style="clip-path:url(#SVGID_00000182503885712092268030000003915411037620054442_);fill:#EB569A;" d="M228.2,124.3
				c0,1.9-1.1,3.6-2.6,4.5c-2.1-2-4.6-4-7.6-5.9c0.6-2.2,2.6-3.8,5-3.8C225.9,119.1,228.2,121.4,228.2,124.3"/>
		</g>
		<g>
			<defs>
				<rect id="SVGID_00000183222664985670390240000011707674752469890440_" x="192.7" width="107.6" height="168.1"/>
			</defs>
			<clipPath id="SVGID_00000067204559149614902830000015873100416319691909_">
				<use xlink:href="#SVGID_00000183222664985670390240000011707674752469890440_"  style="overflow:visible;"/>
			</clipPath>
			<path style="clip-path:url(#SVGID_00000067204559149614902830000015873100416319691909_);fill:#33AA9B;" d="M249,124.3
				c0,2.9-2.3,5.2-5.2,5.2s-5.2-2.3-5.2-5.2c0-2.9,2.3-5.2,5.2-5.2C246.7,119.1,249,121.4,249,124.3"/>
		</g>
		<g>
			<defs>
				<rect id="SVGID_00000128465970922794291060000005312123855262009761_" x="192.7" width="107.6" height="168.1"/>
			</defs>
			<clipPath id="SVGID_00000100351067507068754490000014742831509555729815_">
				<use xlink:href="#SVGID_00000128465970922794291060000005312123855262009761_"  style="overflow:visible;"/>
			</clipPath>
			<path style="clip-path:url(#SVGID_00000100351067507068754490000014742831509555729815_);fill:#EB5989;" d="M269.8,124.3
				c0,2.9-2.3,5.2-5.2,5.2c-2.9,0-5.2-2.3-5.2-5.2c0-2.9,2.3-5.2,5.2-5.2C267.4,119.1,269.8,121.4,269.8,124.3"/>
		</g>
		<g>
			<defs>
				<rect id="SVGID_00000085234814261048433290000003649925008541304471_" x="192.7" width="107.6" height="168.1"/>
			</defs>
			<clipPath id="SVGID_00000035500507636583064090000011783458299327606686_">
				<use xlink:href="#SVGID_00000085234814261048433290000003649925008541304471_"  style="overflow:visible;"/>
			</clipPath>
			<path style="clip-path:url(#SVGID_00000035500507636583064090000011783458299327606686_);fill:#33AA9B;" d="M289.5,127.4
				c-0.9,1.3-2.4,2.1-4.1,2.1c-2.9,0-5.2-2.3-5.2-5.2c0-1.6,0.7-3,1.8-3.9C284.7,123.1,287.3,125.5,289.5,127.4"/>
		</g>
		<g>
			<defs>
				<rect id="SVGID_00000088855836962477638940000013773393980145231291_" x="192.7" width="107.6" height="168.1"/>
			</defs>
			<clipPath id="SVGID_00000012460856748495124170000008749480963965272489_">
				<use xlink:href="#SVGID_00000088855836962477638940000013773393980145231291_"  style="overflow:visible;"/>
			</clipPath>
			<path style="clip-path:url(#SVGID_00000012460856748495124170000008749480963965272489_);fill:#1FA95E;" d="M259.4,145
				c0,2.9-2.3,5.2-5.2,5.2c-2.9,0-5.2-2.3-5.2-5.2s2.3-5.2,5.2-5.2C257,139.8,259.4,142.2,259.4,145"/>
		</g>
		<g>
			<defs>
				<rect id="SVGID_00000142859838148001379880000008415008693551730835_" x="192.7" width="107.6" height="168.1"/>
			</defs>
			<clipPath id="SVGID_00000044887480889082230090000007883588471839003020_">
				<use xlink:href="#SVGID_00000142859838148001379880000008415008693551730835_"  style="overflow:visible;"/>
			</clipPath>
			<path style="clip-path:url(#SVGID_00000044887480889082230090000007883588471839003020_);fill:#FFDB37;" d="M280.1,145
				c0,2.9-2.3,5.2-5.2,5.2c-2.9,0-5.2-2.3-5.2-5.2s2.3-5.2,5.2-5.2C277.8,139.8,280.1,142.2,280.1,145"/>
		</g>
		<g>
			<defs>
				<rect id="SVGID_00000047754690934849848600000013671232633958053784_" x="192.7" width="107.6" height="168.1"/>
			</defs>
			<clipPath id="SVGID_00000051378534770734704650000004911600742008237227_">
				<use xlink:href="#SVGID_00000047754690934849848600000013671232633958053784_"  style="overflow:visible;"/>
			</clipPath>
			<path style="clip-path:url(#SVGID_00000051378534770734704650000004911600742008237227_);fill:#EB5989;" d="M213,120.3
				c-29.8-13.2-19.2-31.4-14.8-42.7c8.4,5.7,21.7,14.6,21.7,14.6S221.5,107.4,213,120.3"/>
		</g>
		<g>
			<defs>
				<rect id="SVGID_00000064312803217645244220000012278015891079303815_" x="192.7" width="107.6" height="168.1"/>
			</defs>
			<clipPath id="SVGID_00000039848737283317126740000016844791565588970907_">
				<use xlink:href="#SVGID_00000064312803217645244220000012278015891079303815_"  style="overflow:visible;"/>
			</clipPath>
			<path style="clip-path:url(#SVGID_00000039848737283317126740000016844791565588970907_);fill:#33AA9B;" d="M294.4,161.8
				c-6,6.5-18.1,9-32.7,2.2c-0.3-0.1-0.5-0.2-0.7-0.4c2.2-6.5,8-14,16.3-20.3c6.5-4.9,13.3-8.2,19.2-9.5
				C303.2,142.3,300,155.8,294.4,161.8"/>
		</g>
	</g>
	<path class="st24" d="M0.2,46.7c0-0.5,0.2-0.8,0.5-1s0.7-0.3,1-0.3l6.4-0.1c1.3,0,2.5,0.1,3.5,0.4c1.1,0.3,2,0.8,2.8,1.4
		c0.8,0.6,1.4,1.4,1.9,2.3c0.5,0.9,0.7,2,0.8,3.2c0,0.7-0.1,1.5-0.3,2.2c-0.2,0.7-0.6,1.4-1,2s-0.9,1.2-1.5,1.7
		c-0.5,0.5-1.1,0.9-1.7,1.3c2,0.5,3.5,1.4,4.6,2.7c1,1.3,1.5,2.9,1.5,4.7c0,1.2-0.2,2.3-0.7,3.2c-0.4,1-1.1,1.8-1.9,2.5
		c-0.8,0.7-1.8,1.2-2.9,1.6s-2.4,0.6-3.7,0.6h-8c-0.3,0-0.6-0.1-0.9-0.3c-0.2-0.2-0.4-0.5-0.4-0.8L0.2,46.7z M2.7,47.7L2.8,59
		l5.5-0.1c0.9,0,1.8-0.2,2.6-0.6c0.8-0.4,1.5-0.9,2-1.5c0.6-0.6,1-1.3,1.3-2s0.5-1.5,0.5-2.2c0-1.3-0.6-2.4-1.7-3.4
		s-2.7-1.5-4.8-1.5H2.7z M2.9,61.6l0.1,11l7.1-0.1c1.1,0,2.1-0.2,2.9-0.5c0.8-0.3,1.5-0.7,2-1.3c0.5-0.5,0.9-1.1,1.2-1.8
		c0.3-0.7,0.4-1.3,0.4-1.9c0-0.7-0.2-1.4-0.5-2.1c-0.3-0.7-0.8-1.3-1.4-1.8c-0.6-0.5-1.4-1-2.4-1.3s-2.1-0.5-3.4-0.4L2.9,61.6z"/>
	<path class="st24" d="M23,60.9c0-2.6,0.3-4.8,1-6.7c0.6-1.9,1.5-3.5,2.6-4.8s2.3-2.3,3.6-2.9c1.4-0.7,2.8-1,4.2-1s2.8,0.3,4.2,0.9
		c1.4,0.6,2.6,1.6,3.7,2.8c1.1,1.3,2,2.9,2.6,4.8c0.7,1.9,1,4.2,1,6.7c0,1.8-0.2,3.6-0.7,5.3s-1.2,3.2-2.1,4.5
		c-0.9,1.3-2.1,2.4-3.5,3.2c-1.4,0.8-3,1.3-4.7,1.4c-2,0.1-3.7-0.3-5.2-1C28.2,73.3,27,72.3,26,71c-1-1.3-1.7-2.9-2.2-4.6
		C23.2,64.6,23,62.8,23,60.9z M34.6,72.7c1.4,0,2.7-0.4,3.8-1.1s2-1.6,2.8-2.8c0.7-1.1,1.3-2.4,1.7-3.9s0.6-2.9,0.6-4.5
		c0-2.8-0.4-5.2-1.3-7.1c-0.9-1.9-2-3.3-3.4-4.2c-1.3-0.9-2.8-1.4-4.4-1.4c-1.6,0-3,0.5-4.3,1.4c-1.3,1-2.4,2.4-3.3,4.3
		c-0.9,1.9-1.3,4.3-1.3,7.1c0,1.5,0.2,2.9,0.5,4.4s0.9,2.8,1.6,3.9s1.7,2,2.8,2.7C31.5,72.4,32.9,72.7,34.6,72.7z"/>
	<path class="st24" d="M52.3,75.2c-0.4,0-0.7-0.1-1-0.3C51.1,74.8,51,74.5,51,74l0.2-27.3c0-0.4,0.1-0.8,0.4-1
		c0.3-0.2,0.6-0.3,0.9-0.3s0.6,0.1,0.8,0.4c0.3,0.2,0.4,0.6,0.4,1l-0.3,25.9l12.9-0.2c0.4,0,0.7,0.1,0.9,0.4
		c0.2,0.3,0.3,0.5,0.3,0.9c0,0.3-0.1,0.6-0.3,0.9c-0.2,0.3-0.5,0.4-0.9,0.4L52.3,75.2z"/>
	<path class="st24" d="M74.6,66.2L74.6,66.2l-2.8,9.1c-0.1,0.3-0.3,0.6-0.6,0.7c-0.3,0.1-0.6,0.1-0.9,0s-0.5-0.3-0.7-0.5
		s-0.3-0.6-0.2-0.9l8.9-28.9c0.1-0.4,0.3-0.6,0.6-0.8c0.3-0.2,0.5-0.2,0.8-0.2s0.6,0.1,0.8,0.3c0.3,0.2,0.4,0.4,0.5,0.7l9.5,28.6
		c0.1,0.4,0.1,0.7-0.1,0.9c-0.2,0.3-0.4,0.4-0.7,0.5c-0.3,0.1-0.6,0.1-0.9,0s-0.5-0.3-0.7-0.7l-3-9.3H85L74.6,66.2z M75.3,63.9
		l9.3-0.4l-4.7-14.7L75.3,63.9z"/>
	<path class="st24" d="M109.9,46.4c0-0.5,0.1-0.8,0.4-1s0.6-0.3,0.9-0.3c2.2-0.1,4.5,0.1,6.8,0.7c2.3,0.6,4.3,1.5,6.2,2.8
		c1.9,1.3,3.4,2.9,4.5,4.8c1.2,1.9,1.8,4.2,1.8,6.7c0,2.2-0.4,4.2-1.2,6.1c-0.8,1.8-2.1,3.4-3.7,4.7c-1.7,1.3-3.7,2.4-6.1,3.1
		c-2.4,0.8-5.2,1.2-8.3,1.3c-0.6,0-1-0.4-1.1-1.1c-0.1-2.5-0.1-4.9-0.1-7.1s0-4.5,0-6.7s0-4.4,0-6.7C109.9,51.4,109.9,49,109.9,46.4
		z M128,60.1c0-2-0.5-3.8-1.4-5.3s-2.1-2.8-3.6-3.9c-1.5-1.1-3.2-1.8-5.1-2.4c-1.9-0.5-3.8-0.8-5.7-0.8c0,2.3,0,4.4,0,6.5
		c0,2,0.1,4.1,0.1,6.1s0.1,4,0.1,6.1s0,4.2,0,6.5c2-0.1,4-0.4,5.9-0.9s3.5-1.3,5-2.3c1.4-1,2.6-2.3,3.4-3.9
		C127.6,64.2,128,62.3,128,60.1z"/>
	<path class="st24" d="M137,75.2c-0.4,0-0.7-0.1-0.9-0.3s-0.4-0.5-0.4-0.9l0.2-27.2c0-0.4,0.1-0.7,0.3-1s0.5-0.4,0.9-0.4l15.5-0.2
		c0.4,0,0.7,0.1,0.9,0.4c0.2,0.3,0.3,0.5,0.3,0.8s-0.1,0.6-0.3,0.9c-0.2,0.3-0.5,0.4-0.9,0.4l-14.4,0.2l-0.1,11.2l13.7-0.3
		c0.4,0,0.6,0.1,0.8,0.4c0.2,0.3,0.3,0.5,0.3,0.9c0,0.3-0.1,0.6-0.3,0.9c-0.2,0.3-0.5,0.4-0.8,0.4L138,61.7v11l14.7-0.2
		c0.4,0,0.7,0.1,0.9,0.4s0.3,0.5,0.3,0.9c0,0.3-0.1,0.6-0.3,0.9s-0.5,0.4-0.9,0.4L137,75.2z"/>
</g>
<g>
	<path class="st0" d="M289.5,118.8c-0.1,0-0.2,0-0.2-0.1c0-0.1-0.1-0.2-0.1-0.2l0-1.3c0-0.4,0-0.7,0.1-1.1c0.1-0.3,0.2-0.6,0.3-0.9
		c0.2-0.2,0.4-0.4,0.6-0.6c0.3-0.1,0.6-0.2,1-0.2c0.4,0,0.7,0.1,0.9,0.2c0.3,0.1,0.5,0.3,0.6,0.5c0.2,0.2,0.3,0.5,0.4,0.8
		c0.1,0.3,0.1,0.6,0.1,0.9l0,1.4l2.8,0c0.1,0,0.2,0,0.2,0.1c0,0.1,0.1,0.1,0.1,0.2c0,0.1,0,0.1-0.1,0.2c0,0.1-0.1,0.1-0.2,0.1
		L289.5,118.8z M289.8,118.2l3,0v-1.4c0-0.2,0-0.5-0.1-0.7s-0.2-0.4-0.3-0.6c-0.1-0.2-0.3-0.3-0.5-0.4c-0.2-0.1-0.4-0.1-0.7-0.2
		c-0.3,0-0.6,0.1-0.8,0.2s-0.4,0.3-0.5,0.5c-0.1,0.2-0.2,0.4-0.2,0.7c0,0.3,0,0.5,0,0.8L289.8,118.2z"/>
	<path class="st0" d="M296.1,112.4c0,0.3,0,0.6-0.1,0.8c-0.1,0.2-0.2,0.4-0.4,0.6c-0.2,0.2-0.4,0.3-0.6,0.3
		c-0.2,0.1-0.5,0.1-0.7,0.1c-0.2,0-0.5,0-0.7-0.1c-0.2-0.1-0.4-0.2-0.6-0.4c-0.2-0.2-0.3-0.3-0.4-0.6c-0.1-0.2-0.2-0.5-0.2-0.8
		c0-0.3,0.1-0.6,0.2-0.8c0.1-0.2,0.3-0.4,0.4-0.6c0.2-0.2,0.4-0.3,0.6-0.3c0.2-0.1,0.5-0.1,0.7-0.1c0.2,0,0.5,0,0.7,0.1
		s0.4,0.2,0.6,0.3c0.2,0.2,0.3,0.3,0.4,0.6C296.1,111.8,296.1,112.1,296.1,112.4z M295.6,112.4c0-0.2,0-0.4-0.1-0.5
		c-0.1-0.1-0.2-0.3-0.3-0.4c-0.1-0.1-0.3-0.2-0.4-0.2c-0.2,0-0.3-0.1-0.5-0.1s-0.3,0-0.5,0.1c-0.2,0.1-0.3,0.1-0.4,0.2
		c-0.1,0.1-0.2,0.2-0.3,0.4c-0.1,0.2-0.1,0.3-0.1,0.5c0,0.2,0.1,0.4,0.1,0.5c0.1,0.2,0.2,0.3,0.3,0.4c0.1,0.1,0.3,0.2,0.4,0.2
		c0.2,0.1,0.3,0.1,0.5,0.1c0.3,0,0.6-0.1,0.9-0.3C295.4,113.1,295.5,112.8,295.6,112.4z"/>
	<path class="st0" d="M292.2,106.8c-0.1,0-0.2,0-0.2-0.1c0-0.1-0.1-0.1-0.1-0.2c0-0.1,0-0.2,0.1-0.2c0-0.1,0.1-0.1,0.2-0.1
		c0.6,0,1.1,0,1.6-0.1c0.4,0,0.8,0,1.2,0c0.3,0,0.7,0,1,0c0.3,0,0.6,0,1,0c0.3,0,0.5,0,0.8,0.1c0.3,0.1,0.5,0.2,0.7,0.3
		c0.2,0.1,0.4,0.3,0.5,0.6c0.1,0.2,0.2,0.5,0.2,0.8c0,0.3,0,0.6-0.1,0.8c-0.1,0.3-0.3,0.5-0.5,0.6c-0.1,0.1-0.1,0.1-0.2,0.1
		c-0.1,0-0.1,0-0.2-0.1c0-0.1-0.1-0.1-0.1-0.2c0-0.1,0-0.2,0.1-0.2c0.2-0.2,0.3-0.3,0.3-0.5c0.1-0.2,0.1-0.3,0.1-0.5
		c0-0.2-0.1-0.4-0.2-0.5c-0.1-0.1-0.2-0.3-0.4-0.4c-0.2-0.1-0.3-0.2-0.5-0.2c-0.2,0-0.4-0.1-0.6-0.1c-0.2,0-0.5,0-0.7,0
		c-0.2,0-0.4,0-0.6,0c0.1,0.1,0.3,0.3,0.4,0.5c0.1,0.2,0.1,0.5,0.1,0.7c0,0.3,0,0.6-0.1,0.8c-0.1,0.2-0.2,0.4-0.4,0.6
		c-0.2,0.2-0.4,0.3-0.6,0.3c-0.2,0.1-0.5,0.1-0.7,0.1c-0.2,0-0.5,0-0.7-0.1c-0.2-0.1-0.4-0.2-0.6-0.4c-0.2-0.2-0.3-0.4-0.4-0.6
		c-0.1-0.2-0.2-0.5-0.2-0.8c0-0.3,0-0.5,0.1-0.7c0.1-0.2,0.2-0.4,0.3-0.5c-0.1,0-0.2,0-0.2,0C292.4,106.8,292.3,106.8,292.2,106.8z
		 M295.6,107.9c0-0.2,0-0.4-0.1-0.5c-0.1-0.2-0.2-0.3-0.3-0.4c-0.1-0.1-0.3-0.2-0.4-0.2c-0.2,0-0.3-0.1-0.5-0.1s-0.3,0-0.5,0.1
		c-0.2,0.1-0.3,0.1-0.4,0.2c-0.1,0.1-0.2,0.2-0.3,0.4c-0.1,0.2-0.1,0.3-0.1,0.5c0,0.2,0.1,0.4,0.1,0.5c0.1,0.2,0.2,0.3,0.3,0.4
		c0.1,0.1,0.3,0.2,0.4,0.2c0.2,0.1,0.3,0.1,0.5,0.1c0.3,0,0.6-0.1,0.9-0.3C295.4,108.6,295.5,108.3,295.6,107.9z"/>
	<path class="st0" d="M296.1,103.1c0,0.3,0,0.6-0.1,0.8c-0.1,0.2-0.2,0.4-0.4,0.6c-0.2,0.2-0.4,0.3-0.6,0.3
		c-0.2,0.1-0.5,0.1-0.7,0.1c-0.2,0-0.5,0-0.7-0.1c-0.2-0.1-0.4-0.2-0.6-0.4c-0.2-0.2-0.3-0.3-0.4-0.6c-0.1-0.2-0.2-0.5-0.2-0.8
		c0-0.3,0.1-0.6,0.2-0.8c0.1-0.2,0.3-0.4,0.4-0.6c0.2-0.2,0.4-0.3,0.6-0.3c0.2-0.1,0.5-0.1,0.7-0.1c0.2,0,0.5,0,0.7,0.1
		s0.4,0.2,0.6,0.3c0.2,0.2,0.3,0.3,0.4,0.6C296.1,102.6,296.1,102.8,296.1,103.1z M295.6,103.1c0-0.2,0-0.4-0.1-0.5
		c-0.1-0.1-0.2-0.3-0.3-0.4c-0.1-0.1-0.3-0.2-0.4-0.2c-0.2,0-0.3-0.1-0.5-0.1s-0.3,0-0.5,0.1c-0.2,0.1-0.3,0.1-0.4,0.2
		c-0.1,0.1-0.2,0.2-0.3,0.4c-0.1,0.2-0.1,0.3-0.1,0.5c0,0.2,0.1,0.4,0.1,0.5c0.1,0.2,0.2,0.3,0.3,0.4c0.1,0.1,0.3,0.2,0.4,0.2
		c0.2,0.1,0.3,0.1,0.5,0.1c0.3,0,0.6-0.1,0.9-0.3C295.4,103.8,295.5,103.5,295.6,103.1z"/>
	<path class="st0" d="M292.2,100.3c-0.1,0-0.2,0-0.2-0.1s-0.1-0.1-0.1-0.2c0-0.1,0-0.1,0.1-0.2s0.1-0.1,0.2-0.1h0.6
		c-0.1-0.1-0.2-0.3-0.3-0.4c-0.1-0.2-0.1-0.3-0.1-0.5s0-0.3,0.1-0.5s0.2-0.3,0.4-0.4c0.1-0.1,0.2-0.1,0.3-0.1c0.1,0,0.1,0,0.2,0.1
		c0,0,0.1,0.1,0.1,0.2c0,0.1-0.1,0.2-0.1,0.2c-0.2,0.2-0.3,0.4-0.3,0.6c0,0.3,0.2,0.5,0.5,0.6c0.1,0.1,0.3,0.1,0.5,0.1
		c0.2,0,0.4,0,0.6,0.1l1.7,0c0.1,0,0.2,0,0.2,0.1c0,0.1,0.1,0.1,0.1,0.2s0,0.1-0.1,0.2c0,0.1-0.1,0.1-0.2,0.1L292.2,100.3z"/>
	<path class="st0" d="M293.8,93.5c0.1,0.1,0.1,0.3,0.2,0.6c0.1,0.3,0.1,0.6,0.2,0.9c0.1,0.3,0.1,0.6,0.1,0.9c0,0.3,0.1,0.5,0.1,0.7
		c0.2,0,0.4-0.1,0.6-0.1c0.2-0.1,0.3-0.2,0.5-0.3c0.1-0.1,0.2-0.3,0.3-0.5c0.1-0.2,0.1-0.4,0-0.6c0-0.3-0.1-0.5-0.3-0.7
		c-0.1-0.2-0.3-0.4-0.6-0.6c-0.1-0.1-0.1-0.1-0.1-0.2c0-0.1,0-0.2,0-0.2c0-0.1,0.1-0.1,0.2-0.1c0.1,0,0.1,0,0.2,0
		c0.4,0.3,0.6,0.6,0.8,0.8c0.2,0.3,0.3,0.6,0.3,0.8c0.1,0.3,0,0.6,0,0.9c-0.1,0.3-0.2,0.5-0.4,0.7c-0.2,0.2-0.4,0.4-0.7,0.5
		c-0.3,0.1-0.6,0.2-1,0.2c-0.3,0-0.5,0-0.8-0.1c-0.3-0.1-0.5-0.2-0.7-0.3s-0.4-0.3-0.5-0.5c-0.1-0.2-0.2-0.5-0.3-0.8
		c0-0.3,0-0.5,0-0.8c0.1-0.2,0.2-0.5,0.3-0.7c0.1-0.2,0.3-0.4,0.6-0.5c0.2-0.1,0.5-0.2,0.8-0.3C293.7,93.4,293.7,93.5,293.8,93.5z
		 M292.4,95.7c0,0.2,0.1,0.3,0.2,0.4c0.1,0.1,0.2,0.2,0.3,0.3c0.1,0.1,0.2,0.1,0.4,0.2c0.1,0,0.3,0.1,0.4,0.1c0-0.5,0-0.9-0.1-1.3
		c-0.1-0.4-0.2-0.8-0.3-1.3c-0.2,0-0.3,0.1-0.4,0.2c-0.1,0.1-0.2,0.2-0.3,0.4c-0.1,0.1-0.2,0.3-0.2,0.5
		C292.4,95.3,292.4,95.5,292.4,95.7z"/>
	<path class="st0" d="M289.5,92.2c-0.1,0-0.2,0-0.2-0.1c0-0.1-0.1-0.1-0.1-0.2c0-0.1,0-0.1,0.1-0.2c0-0.1,0.1-0.1,0.2-0.1l6.6-0.1
		c0.1,0,0.2,0,0.2,0.1c0,0.1,0.1,0.1,0.1,0.2c0,0.1,0,0.2-0.1,0.2c0,0.1-0.1,0.1-0.2,0.1L289.5,92.2z"/>
	<path class="st0" d="M296.1,88.5c0,0.3,0,0.6-0.1,0.8c-0.1,0.2-0.2,0.4-0.4,0.6c-0.2,0.2-0.4,0.3-0.6,0.3c-0.2,0.1-0.5,0.1-0.7,0.1
		c-0.2,0-0.5,0-0.7-0.1c-0.2-0.1-0.4-0.2-0.6-0.4c-0.2-0.2-0.3-0.4-0.4-0.6c-0.1-0.2-0.2-0.5-0.2-0.8c0-0.3,0.1-0.6,0.2-0.8
		c0.1-0.2,0.3-0.4,0.4-0.6c0.2-0.2,0.4-0.3,0.6-0.3c0.2-0.1,0.5-0.1,0.7-0.1c0.2,0,0.5,0,0.7,0.1c0.2,0.1,0.4,0.2,0.6,0.3
		c0.2,0.2,0.3,0.3,0.4,0.6C296.1,88,296.1,88.2,296.1,88.5z M295.6,88.5c0-0.2,0-0.4-0.1-0.5c-0.1-0.2-0.2-0.3-0.3-0.4
		c-0.1-0.1-0.3-0.2-0.4-0.2c-0.2,0-0.3-0.1-0.5-0.1s-0.3,0-0.5,0.1c-0.2,0.1-0.3,0.1-0.4,0.2c-0.1,0.1-0.2,0.2-0.3,0.4
		c-0.1,0.2-0.1,0.3-0.1,0.5c0,0.2,0.1,0.4,0.1,0.5s0.2,0.3,0.3,0.4c0.1,0.1,0.3,0.2,0.4,0.2c0.2,0.1,0.3,0.1,0.5,0.1
		c0.3,0,0.6-0.1,0.9-0.3C295.4,89.3,295.5,88.9,295.6,88.5z"/>
	<path class="st0" d="M292.5,86.1c-0.1,0-0.2,0.1-0.3,0s-0.1-0.1-0.2-0.2c0-0.1,0-0.1,0-0.2c0-0.1,0.1-0.1,0.2-0.2l3.3-1.2l-3.2-1
		c-0.1,0-0.2-0.1-0.3-0.2c0-0.1,0-0.2,0-0.2c0-0.1,0.1-0.1,0.2-0.2c0.1,0,0.2,0,0.3,0l3.4,1.2c0.1,0,0.1,0.1,0.2,0.2
		c0,0.1,0.1,0.2,0.1,0.3c0,0.1,0,0.2,0,0.3c0,0.1-0.1,0.1-0.2,0.2L292.5,86.1z"/>
	<path class="st0" d="M292,79.3c-0.1,0-0.2,0-0.2-0.1c0-0.1-0.1-0.1-0.1-0.2c0-0.1,0-0.1,0.1-0.2c0-0.1,0.1-0.1,0.2-0.1
		c0.7,0,1.4,0,2.1,0c0.7,0,1.4,0,2.1-0.1c0.1,0,0.1,0,0.2,0.1c0,0.1,0.1,0.1,0.1,0.2c0,0.1,0,0.1-0.1,0.2c0,0.1-0.1,0.1-0.2,0.1
		l-0.6,0c0.2,0.2,0.3,0.4,0.4,0.7c0.1,0.3,0.1,0.6,0,1c0,0.2-0.1,0.4-0.3,0.6c-0.1,0.2-0.3,0.3-0.4,0.4c-0.2,0.1-0.3,0.2-0.5,0.2
		c-0.2,0-0.4,0.1-0.6,0c-0.2,0-0.5-0.1-0.7-0.2c-0.2-0.1-0.4-0.2-0.6-0.4c-0.2-0.1-0.3-0.3-0.4-0.5c-0.1-0.2-0.2-0.5-0.2-0.7
		c0-0.2,0.1-0.4,0.1-0.5c0.1-0.2,0.2-0.3,0.3-0.4c-0.1,0-0.2,0-0.4,0C292.2,79.3,292.1,79.3,292,79.3z M295.3,80.7
		c0.1-0.2,0.1-0.3,0.1-0.5s-0.1-0.3-0.2-0.4c-0.1-0.1-0.2-0.2-0.3-0.3c-0.1-0.1-0.3-0.2-0.4-0.2l-0.7,0c-0.2,0.1-0.4,0.2-0.5,0.3
		c-0.1,0.1-0.2,0.3-0.3,0.4c-0.1,0.2-0.1,0.3,0,0.5c0,0.2,0.1,0.3,0.2,0.5c0.1,0.1,0.3,0.3,0.4,0.3c0.2,0.1,0.4,0.1,0.7,0.1
		c0.2,0,0.5-0.1,0.7-0.2C295.1,81.2,295.2,81,295.3,80.7z"/>
	<path class="st0" d="M292.9,74.2c-0.6,0-1.2-0.1-1.6-0.2c-0.5-0.2-0.9-0.4-1.2-0.6c-0.3-0.3-0.5-0.6-0.7-0.9
		c-0.2-0.3-0.2-0.7-0.2-1c0-0.3,0.1-0.7,0.2-1c0.2-0.3,0.4-0.6,0.7-0.9c0.3-0.3,0.7-0.5,1.2-0.6c0.5-0.2,1-0.2,1.6-0.2
		c0.4,0,0.9,0.1,1.3,0.2c0.4,0.1,0.8,0.3,1.1,0.5c0.3,0.2,0.6,0.5,0.8,0.8c0.2,0.3,0.3,0.7,0.3,1.1c0,0.5-0.1,0.9-0.2,1.3
		c-0.2,0.4-0.4,0.7-0.8,0.9c-0.3,0.2-0.7,0.4-1.1,0.5C293.8,74.2,293.4,74.2,292.9,74.2z M295.7,71.4c0-0.3-0.1-0.6-0.3-0.9
		c-0.2-0.3-0.4-0.5-0.7-0.7c-0.3-0.2-0.6-0.3-0.9-0.4c-0.4-0.1-0.7-0.1-1.1-0.1c-0.7,0-1.2,0.1-1.7,0.3c-0.5,0.2-0.8,0.5-1,0.8
		c-0.2,0.3-0.3,0.7-0.3,1.1c0,0.4,0.1,0.7,0.3,1c0.2,0.3,0.6,0.6,1,0.8c0.5,0.2,1,0.3,1.7,0.3c0.4,0,0.7,0,1.1-0.1
		c0.4-0.1,0.7-0.2,0.9-0.4c0.3-0.2,0.5-0.4,0.7-0.7C295.7,72.2,295.7,71.8,295.7,71.4z"/>
	<path class="st0" d="M289.5,67.6c-0.1,0-0.2,0-0.2-0.1c0-0.1-0.1-0.1-0.1-0.2c0-0.1,0-0.1,0.1-0.2c0-0.1,0.1-0.1,0.2-0.1l6.6-0.1
		c0.1,0,0.2,0,0.2,0.1c0,0.1,0.1,0.1,0.1,0.2s0,0.2-0.1,0.2c0,0.1-0.1,0.1-0.2,0.1L289.5,67.6z"/>
	<path class="st0" d="M292.2,62.8c-0.1,0-0.2,0-0.2-0.1c0-0.1-0.1-0.1-0.1-0.2c0-0.1,0-0.2,0.1-0.2c0-0.1,0.1-0.1,0.2-0.1
		c0.6,0,1.1,0,1.6-0.1c0.4,0,0.8,0,1.2,0c0.3,0,0.7,0,1,0c0.3,0,0.6,0,1,0c0.3,0,0.5,0,0.8,0.1c0.3,0.1,0.5,0.2,0.7,0.3
		c0.2,0.1,0.4,0.3,0.5,0.6c0.1,0.2,0.2,0.5,0.2,0.8c0,0.3,0,0.6-0.1,0.8c-0.1,0.3-0.3,0.5-0.5,0.6c-0.1,0.1-0.1,0.1-0.2,0.1
		c-0.1,0-0.1,0-0.2-0.1c0-0.1-0.1-0.1-0.1-0.2c0-0.1,0-0.2,0.1-0.2c0.2-0.2,0.3-0.3,0.3-0.5c0.1-0.2,0.1-0.3,0.1-0.5
		c0-0.2-0.1-0.4-0.2-0.5c-0.1-0.2-0.2-0.3-0.4-0.4s-0.3-0.2-0.5-0.2c-0.2,0-0.4-0.1-0.6-0.1c-0.2,0-0.5,0-0.7,0c-0.2,0-0.4,0-0.6,0
		c0.1,0.1,0.3,0.3,0.4,0.5c0.1,0.2,0.1,0.5,0.1,0.7c0,0.3,0,0.6-0.1,0.8c-0.1,0.2-0.2,0.4-0.4,0.6c-0.2,0.2-0.4,0.3-0.6,0.3
		c-0.2,0.1-0.5,0.1-0.7,0.1c-0.2,0-0.5,0-0.7-0.1c-0.2-0.1-0.4-0.2-0.6-0.4c-0.2-0.2-0.3-0.4-0.4-0.6c-0.1-0.2-0.2-0.5-0.2-0.8
		c0-0.3,0-0.5,0.1-0.7c0.1-0.2,0.2-0.4,0.3-0.5c-0.1,0-0.2,0-0.2,0C292.4,62.8,292.3,62.8,292.2,62.8z M295.6,63.9
		c0-0.2,0-0.4-0.1-0.5c-0.1-0.1-0.2-0.3-0.3-0.4c-0.1-0.1-0.3-0.2-0.4-0.2c-0.2,0-0.3-0.1-0.5-0.1s-0.3,0-0.5,0.1
		c-0.2,0.1-0.3,0.1-0.4,0.2c-0.1,0.1-0.2,0.2-0.3,0.4c-0.1,0.2-0.1,0.3-0.1,0.5c0,0.2,0.1,0.4,0.1,0.5c0.1,0.2,0.2,0.3,0.3,0.4
		c0.1,0.1,0.3,0.2,0.4,0.2c0.2,0.1,0.3,0.1,0.5,0.1c0.3,0,0.6-0.1,0.9-0.3C295.4,64.6,295.5,64.3,295.6,63.9z"/>
	<path class="st0" d="M292,58.3c-0.1,0-0.2,0-0.2-0.1c0-0.1-0.1-0.1-0.1-0.2c0-0.1,0-0.1,0.1-0.2c0-0.1,0.1-0.1,0.2-0.1
		c0.7,0,1.4,0,2.1,0c0.7,0,1.4,0,2.1-0.1c0.1,0,0.1,0,0.2,0.1c0,0.1,0.1,0.1,0.1,0.2c0,0.1,0,0.1-0.1,0.2c0,0.1-0.1,0.1-0.2,0.1
		l-0.6,0c0.2,0.2,0.3,0.4,0.4,0.7c0.1,0.3,0.1,0.6,0,1c0,0.2-0.1,0.4-0.3,0.6c-0.1,0.2-0.3,0.3-0.4,0.4c-0.2,0.1-0.3,0.2-0.5,0.2
		c-0.2,0-0.4,0.1-0.6,0c-0.2,0-0.5-0.1-0.7-0.2c-0.2-0.1-0.4-0.2-0.6-0.4c-0.2-0.1-0.3-0.3-0.4-0.5c-0.1-0.2-0.2-0.5-0.2-0.7
		c0-0.2,0.1-0.4,0.1-0.5c0.1-0.2,0.2-0.3,0.3-0.4c-0.1,0-0.2,0-0.4,0C292.2,58.3,292.1,58.3,292,58.3z M295.3,59.7
		c0.1-0.2,0.1-0.3,0.1-0.5c0-0.2-0.1-0.3-0.2-0.4c-0.1-0.1-0.2-0.2-0.3-0.3c-0.1-0.1-0.3-0.2-0.4-0.2l-0.7,0
		c-0.2,0.1-0.4,0.2-0.5,0.3c-0.1,0.1-0.2,0.3-0.3,0.4c-0.1,0.2-0.1,0.3,0,0.5c0,0.2,0.1,0.3,0.2,0.5c0.1,0.1,0.3,0.3,0.4,0.3
		c0.2,0.1,0.4,0.1,0.7,0.1c0.2,0,0.5-0.1,0.7-0.2C295.1,60.1,295.2,59.9,295.3,59.7z"/>
	<path class="st0" d="M289.4,54.8c-0.1,0-0.2-0.1-0.2-0.2c0-0.1,0-0.2,0-0.2c0-0.1,0.1-0.1,0.1-0.2c0.1,0,0.1-0.1,0.2,0l6.9,2
		c0.1,0,0.1,0.1,0.2,0.1c0,0.1,0,0.1,0,0.2s-0.1,0.1-0.1,0.2c-0.1,0-0.1,0.1-0.2,0L289.4,54.8z"/>
	<path class="st0" d="M294.3,49.4c-0.2,0-0.4,0.1-0.5,0.2c-0.1,0.1-0.3,0.3-0.3,0.5c-0.1,0.2-0.2,0.4-0.2,0.7
		c-0.1,0.3-0.1,0.5-0.2,0.8c-0.1,0.3-0.1,0.5-0.2,0.8c-0.1,0.3-0.2,0.5-0.4,0.7c-0.1,0.2-0.3,0.4-0.6,0.5c-0.2,0.1-0.5,0.2-0.9,0.2
		c-0.3,0-0.6-0.1-0.9-0.2c-0.2-0.2-0.4-0.4-0.6-0.6c-0.2-0.3-0.3-0.5-0.3-0.8c-0.1-0.3-0.1-0.6-0.1-0.9c0-0.3,0.1-0.6,0.2-0.9
		c0.1-0.3,0.3-0.6,0.5-0.8c0.1-0.1,0.1-0.1,0.2-0.1c0.1,0,0.1,0,0.2,0.1c0,0.1,0.1,0.1,0.1,0.2c0,0.1,0,0.2-0.1,0.2
		c-0.2,0.2-0.3,0.5-0.4,0.9c-0.1,0.4-0.1,0.7,0,1.1c0.1,0.4,0.2,0.7,0.4,0.9c0.2,0.3,0.5,0.4,0.9,0.4c0.3,0,0.5,0,0.6-0.2
		c0.2-0.1,0.3-0.3,0.4-0.5c0.1-0.2,0.2-0.4,0.3-0.7c0.1-0.3,0.1-0.5,0.2-0.8c0.1-0.3,0.2-0.5,0.2-0.8c0.1-0.3,0.2-0.5,0.3-0.7
		s0.3-0.4,0.5-0.5c0.2-0.1,0.5-0.2,0.8-0.2c0.3,0,0.6,0.1,0.9,0.3c0.2,0.2,0.4,0.4,0.6,0.7c0.2,0.3,0.3,0.6,0.3,0.9
		c0.1,0.3,0.1,0.7,0.1,1c0,0.3-0.1,0.7-0.2,1c-0.1,0.3-0.2,0.6-0.4,0.8c-0.1,0.1-0.1,0.1-0.2,0.1c-0.1,0-0.1,0-0.2-0.1
		c-0.1-0.1-0.1-0.1-0.1-0.2c0-0.1,0-0.2,0.1-0.2c0.1-0.2,0.2-0.4,0.3-0.6c0.1-0.2,0.1-0.5,0.1-0.8c0-0.3,0-0.5,0-0.8
		c0-0.3-0.1-0.5-0.2-0.7c-0.1-0.2-0.3-0.4-0.4-0.5C294.8,49.5,294.6,49.4,294.3,49.4z"/>
	<path class="st0" d="M289.5,47.8c-0.1,0-0.2,0-0.2-0.1c0-0.1-0.1-0.1-0.1-0.2c0-0.1,0-0.2,0.1-0.2s0.1-0.1,0.2-0.1
		c0.3,0,0.6,0,0.8,0c0.2,0,0.5,0,0.7,0c0.2,0,0.5,0,0.8,0c0.3,0,0.6,0,1.1,0c-0.2-0.2-0.3-0.3-0.4-0.6c-0.1-0.2-0.2-0.5-0.2-0.8
		c0-0.3,0-0.5,0.1-0.7s0.2-0.4,0.4-0.5s0.3-0.3,0.6-0.3c0.2-0.1,0.4-0.1,0.7-0.2c0.3,0,0.7-0.1,1.1-0.1c0.4,0,0.7,0,1,0
		c0.1,0,0.1,0,0.2,0.1c0,0.1,0.1,0.1,0.1,0.2c0,0.1,0,0.1-0.1,0.2c0,0.1-0.1,0.1-0.2,0.1c-0.3,0-0.7,0-1,0s-0.7,0-1,0.1
		c-0.3,0-0.6,0.2-0.9,0.4c-0.2,0.2-0.4,0.5-0.4,0.8c0,0.4,0.1,0.7,0.4,0.9c0.3,0.2,0.8,0.4,1.5,0.4l1.4,0c0.1,0,0.1,0,0.2,0.1
		c0,0.1,0.1,0.1,0.1,0.2c0,0.1,0,0.2,0,0.2c0,0.1-0.1,0.1-0.2,0.1c-0.6,0-1.2,0-1.7,0c-0.5,0-1.1,0-1.6,0c-0.5,0-1.1,0-1.6,0
		S290.1,47.8,289.5,47.8z"/>
	<path class="st0" d="M292.3,39.4c0.4,0,0.7,0,0.9,0c0.2,0,0.4,0,0.6,0c0.2,0,0.3,0,0.4,0c0.1,0,0.3,0,0.4,0c0.2,0,0.3,0,0.6,0
		s0.5,0,0.9,0c0.1,0,0.2,0,0.2,0.1c0,0.1,0.1,0.1,0.1,0.2c0,0.1,0,0.1-0.1,0.2c0,0.1-0.1,0.1-0.2,0.1h-0.6c0.2,0.1,0.4,0.3,0.5,0.5
		c0.1,0.2,0.2,0.5,0.2,0.8c0,0.3,0,0.5-0.2,0.7c-0.1,0.2-0.3,0.4-0.4,0.5c-0.2,0.1-0.4,0.2-0.7,0.3c-0.3,0.1-0.5,0.1-0.8,0.1
		c-0.3,0-0.6,0-0.9,0.1s-0.6,0-0.9,0c-0.1,0-0.2,0-0.2-0.1s-0.1-0.1-0.1-0.2c0-0.1,0-0.1,0.1-0.2c0-0.1,0.1-0.1,0.2-0.1
		c0.4,0,0.7,0,1.1,0c0.4,0,0.7,0,1.1-0.1c0.3-0.1,0.6-0.2,0.8-0.3c0.2-0.2,0.3-0.4,0.3-0.7c0-0.5-0.2-0.8-0.7-1
		c-0.5-0.2-1.2-0.3-2.1-0.3h-0.5c-0.1,0-0.2,0-0.2-0.1c0-0.1-0.1-0.1-0.1-0.2c0-0.1,0-0.1,0-0.2S292.2,39.4,292.3,39.4z"/>
	<path class="st0" d="M292.6,36.8l3.5,0c0.1,0,0.2,0,0.2,0.1c0,0.1,0.1,0.1,0.1,0.2s0,0.1-0.1,0.2c0,0.1-0.1,0.1-0.2,0.1l-3.5,0
		l0,0.9c0,0.1,0,0.2-0.1,0.2c-0.1,0.1-0.1,0.1-0.2,0.1c-0.1,0-0.1,0-0.2-0.1c-0.1,0-0.1-0.1-0.1-0.2l0-0.9l-2.1,0
		c-0.1,0-0.2,0-0.2-0.1c0-0.1-0.1-0.1-0.1-0.2s0-0.1,0.1-0.2c0-0.1,0.1-0.1,0.2-0.1l2.1,0l0-1c0-0.1,0-0.2,0.1-0.2
		c0.1,0,0.1-0.1,0.2-0.1c0.1,0,0.1,0,0.2,0c0.1,0,0.1,0.1,0.1,0.2L292.6,36.8z"/>
	<path class="st0" d="M292.6,33.4l3.5,0c0.1,0,0.2,0,0.2,0.1c0,0.1,0.1,0.1,0.1,0.2s0,0.1-0.1,0.2c0,0.1-0.1,0.1-0.2,0.1l-3.5,0
		l0,0.9c0,0.1,0,0.2-0.1,0.2c-0.1,0.1-0.1,0.1-0.2,0.1c-0.1,0-0.1,0-0.2-0.1c-0.1,0-0.1-0.1-0.1-0.2l0-0.9l-2.1,0
		c-0.1,0-0.2,0-0.2-0.1c0-0.1-0.1-0.1-0.1-0.2c0-0.1,0-0.1,0.1-0.2c0-0.1,0.1-0.1,0.2-0.1l2.1,0l0-1c0-0.1,0-0.2,0.1-0.2
		c0.1,0,0.1-0.1,0.2-0.1c0.1,0,0.1,0,0.2,0c0.1,0,0.1,0.1,0.1,0.2L292.6,33.4z"/>
	<path class="st0" d="M293.8,27.8c0.1,0.1,0.1,0.3,0.2,0.6c0.1,0.3,0.1,0.6,0.2,0.9c0.1,0.3,0.1,0.6,0.1,0.9c0,0.3,0.1,0.5,0.1,0.7
		c0.2,0,0.4-0.1,0.6-0.1c0.2-0.1,0.3-0.2,0.5-0.3s0.2-0.3,0.3-0.5c0.1-0.2,0.1-0.4,0-0.6c0-0.3-0.1-0.5-0.3-0.7
		c-0.1-0.2-0.3-0.4-0.6-0.6c-0.1-0.1-0.1-0.1-0.1-0.2c0-0.1,0-0.2,0-0.2c0-0.1,0.1-0.1,0.2-0.1c0.1,0,0.1,0,0.2,0
		c0.4,0.3,0.6,0.6,0.8,0.8c0.2,0.3,0.3,0.6,0.3,0.8c0.1,0.3,0,0.6,0,0.9c-0.1,0.3-0.2,0.5-0.4,0.7c-0.2,0.2-0.4,0.4-0.7,0.5
		c-0.3,0.1-0.6,0.2-1,0.2c-0.3,0-0.5,0-0.8-0.1c-0.3-0.1-0.5-0.2-0.7-0.3c-0.2-0.1-0.4-0.3-0.5-0.5c-0.1-0.2-0.2-0.5-0.3-0.8
		c0-0.2,0-0.5,0-0.8c0.1-0.3,0.2-0.5,0.3-0.7c0.1-0.2,0.3-0.4,0.6-0.5c0.2-0.1,0.5-0.2,0.8-0.3C293.7,27.7,293.7,27.8,293.8,27.8z
		 M292.4,30c0,0.2,0.1,0.3,0.2,0.4c0.1,0.1,0.2,0.2,0.3,0.3s0.2,0.1,0.4,0.2c0.1,0,0.3,0.1,0.4,0.1c0-0.5,0-0.9-0.1-1.3
		c-0.1-0.4-0.2-0.8-0.3-1.3c-0.2,0-0.3,0.1-0.4,0.2c-0.1,0.1-0.2,0.2-0.3,0.4c-0.1,0.1-0.2,0.3-0.2,0.5
		C292.4,29.6,292.4,29.8,292.4,30z"/>
	<path class="st0" d="M292.2,26.7c-0.1,0-0.2,0-0.2-0.1s-0.1-0.1-0.1-0.2c0-0.1,0-0.1,0.1-0.2s0.1-0.1,0.2-0.1h0.6
		c-0.1-0.1-0.2-0.3-0.3-0.4c-0.1-0.2-0.1-0.3-0.1-0.5c0-0.2,0-0.3,0.1-0.5c0.1-0.2,0.2-0.3,0.4-0.4c0.1-0.1,0.2-0.1,0.3-0.1
		c0.1,0,0.1,0,0.2,0.1c0,0,0.1,0.1,0.1,0.2c0,0.1-0.1,0.2-0.1,0.2c-0.2,0.2-0.3,0.4-0.3,0.6c0,0.3,0.2,0.5,0.5,0.6
		c0.1,0.1,0.3,0.1,0.5,0.1c0.2,0,0.4,0,0.6,0.1l1.7,0c0.1,0,0.2,0,0.2,0.1c0,0.1,0.1,0.1,0.1,0.2c0,0.1,0,0.1-0.1,0.2
		c0,0.1-0.1,0.1-0.2,0.1L292.2,26.7z"/>
	<path class="st0" d="M295.4,23.1c0.1-0.1,0.2-0.3,0.3-0.5c0.1-0.2,0.1-0.5,0.1-0.7c0-0.2-0.1-0.4-0.1-0.6c-0.1-0.2-0.2-0.3-0.4-0.3
		c-0.2,0-0.3,0.1-0.4,0.2c-0.1,0.1-0.2,0.3-0.2,0.4c-0.1,0.2-0.1,0.4-0.2,0.6c0,0.2-0.1,0.4-0.2,0.6c-0.1,0.2-0.2,0.3-0.3,0.5
		c-0.1,0.1-0.3,0.2-0.5,0.2c-0.2,0-0.4,0-0.6-0.1c-0.2-0.1-0.3-0.2-0.4-0.3c-0.1-0.1-0.2-0.3-0.3-0.5c-0.1-0.2-0.1-0.4-0.1-0.6
		c0-0.3,0-0.5,0.1-0.8c0.1-0.2,0.3-0.4,0.4-0.6c0.1,0,0.1-0.1,0.2,0c0.1,0,0.1,0.1,0.2,0.1c0,0.1,0.1,0.1,0,0.2c0,0.1,0,0.1-0.1,0.2
		c-0.1,0.1-0.2,0.2-0.3,0.4c-0.1,0.2-0.1,0.3-0.1,0.5c0,0.2,0.1,0.4,0.2,0.6c0.1,0.2,0.3,0.3,0.5,0.2c0.1,0,0.2-0.1,0.3-0.2
		c0.1-0.1,0.1-0.3,0.2-0.5c0.1-0.2,0.1-0.4,0.2-0.6c0.1-0.2,0.1-0.4,0.2-0.6c0.1-0.2,0.2-0.3,0.4-0.5c0.2-0.1,0.4-0.2,0.7-0.2
		c0.2,0,0.4,0.1,0.6,0.2c0.2,0.1,0.3,0.3,0.4,0.5c0.1,0.2,0.1,0.4,0.2,0.6c0,0.2,0,0.5,0,0.7c0,0.2-0.1,0.4-0.2,0.6
		c-0.1,0.2-0.2,0.4-0.3,0.5c-0.1,0.1-0.2,0.1-0.2,0.1c-0.1,0-0.2,0-0.2-0.1c-0.1-0.1-0.1-0.1-0.1-0.2
		C295.3,23.2,295.3,23.1,295.4,23.1z"/>
	<path class="st0" d="M292.6,18.1l3.5,0c0.1,0,0.2,0,0.2,0.1c0,0.1,0.1,0.1,0.1,0.2c0,0.1,0,0.1-0.1,0.2c0,0.1-0.1,0.1-0.2,0.1
		l-3.5,0l0,0.9c0,0.1,0,0.2-0.1,0.2c-0.1,0.1-0.1,0.1-0.2,0.1s-0.1,0-0.2-0.1c-0.1,0-0.1-0.1-0.1-0.2l0-0.9l-2.1,0
		c-0.1,0-0.2,0-0.2-0.1c0-0.1-0.1-0.1-0.1-0.2c0-0.1,0-0.1,0.1-0.2c0-0.1,0.1-0.1,0.2-0.1l2.1,0l0-1c0-0.1,0-0.2,0.1-0.2
		c0.1,0,0.1-0.1,0.2-0.1c0.1,0,0.1,0,0.2,0c0.1,0,0.1,0.1,0.1,0.2L292.6,18.1z"/>
	<path class="st0" d="M296.1,14.3c0,0.3,0,0.6-0.1,0.8c-0.1,0.2-0.2,0.4-0.4,0.6c-0.2,0.2-0.4,0.3-0.6,0.3c-0.2,0.1-0.5,0.1-0.7,0.1
		c-0.2,0-0.5,0-0.7-0.1c-0.2-0.1-0.4-0.2-0.6-0.4c-0.2-0.2-0.3-0.4-0.4-0.6c-0.1-0.2-0.2-0.5-0.2-0.8c0-0.3,0.1-0.6,0.2-0.8
		c0.1-0.2,0.3-0.4,0.4-0.6c0.2-0.2,0.4-0.3,0.6-0.3c0.2-0.1,0.5-0.1,0.7-0.1c0.2,0,0.5,0,0.7,0.1c0.2,0.1,0.4,0.2,0.6,0.3
		c0.2,0.2,0.3,0.3,0.4,0.6C296.1,13.8,296.1,14.1,296.1,14.3z M295.6,14.3c0-0.2,0-0.4-0.1-0.5c-0.1-0.2-0.2-0.3-0.3-0.4
		c-0.1-0.1-0.3-0.2-0.4-0.2c-0.2,0-0.3-0.1-0.5-0.1s-0.3,0-0.5,0.1c-0.2,0.1-0.3,0.1-0.4,0.2c-0.1,0.1-0.2,0.2-0.3,0.4
		c-0.1,0.2-0.1,0.3-0.1,0.5c0,0.2,0.1,0.4,0.1,0.5s0.2,0.3,0.3,0.4c0.1,0.1,0.3,0.2,0.4,0.2c0.2,0.1,0.3,0.1,0.5,0.1
		c0.3,0,0.6-0.1,0.9-0.3C295.4,15.1,295.5,14.8,295.6,14.3z"/>
	<path class="st0" d="M291.9,10.3c0-0.2,0-0.4,0-0.5c0-0.2,0.1-0.3,0.2-0.5c0.1-0.2,0.2-0.3,0.4-0.4c0.2-0.1,0.3-0.2,0.6-0.3
		c0.1,0,0.2,0,0.2,0c0.1,0,0.1,0.1,0.1,0.2c0,0.1,0,0.1,0,0.2c0,0.1-0.1,0.1-0.2,0.1c-0.3,0.1-0.5,0.2-0.6,0.4
		c-0.1,0.2-0.2,0.4-0.1,0.7c0,0.2,0.1,0.3,0.2,0.5c0.1,0.1,0.2,0.2,0.4,0.3c0.1,0.1,0.3,0.1,0.5,0.2c0.2,0,0.3,0,0.5,0
		c0.2,0,0.4,0,0.6-0.1c0.2-0.1,0.4-0.1,0.5-0.2c0.2-0.1,0.3-0.2,0.4-0.4c0.1-0.1,0.1-0.3,0.1-0.5c0-0.2-0.1-0.5-0.2-0.8
		c-0.1-0.3-0.3-0.5-0.6-0.8c-0.1-0.1-0.1-0.1-0.1-0.2c0-0.1,0-0.1,0.1-0.2c0-0.1,0.1-0.1,0.2-0.1c0.1,0,0.1,0,0.2,0.1
		c0.2,0.1,0.3,0.3,0.5,0.5c0.1,0.2,0.2,0.3,0.3,0.5c0.1,0.2,0.2,0.4,0.2,0.5c0,0.2,0.1,0.3,0.1,0.5c0,0.3-0.1,0.5-0.2,0.8
		c-0.1,0.2-0.3,0.4-0.5,0.6c-0.2,0.2-0.4,0.3-0.7,0.3c-0.3,0.1-0.5,0.1-0.8,0.1c-0.2,0-0.5,0-0.7-0.1c-0.2-0.1-0.5-0.1-0.7-0.3
		c-0.2-0.1-0.4-0.3-0.5-0.5S292,10.6,291.9,10.3z"/>
	<path class="st0" d="M289.4,7.1c-0.1,0-0.2,0-0.2-0.1c0-0.1-0.1-0.1-0.1-0.2c0-0.1,0-0.2,0.1-0.2c0-0.1,0.1-0.1,0.2-0.1l4.2-0.1
		l-1.4-1.7c-0.1-0.1-0.1-0.2-0.1-0.2c0-0.1,0-0.1,0.1-0.2c0.1,0,0.1-0.1,0.2-0.1s0.1,0,0.2,0.1l1.7,2l1.5-2.7c0-0.1,0.1-0.2,0.2-0.2
		c0.1,0,0.1,0,0.2,0c0.1,0,0.1,0.1,0.2,0.2c0,0.1,0,0.2,0,0.2l-1.4,2.7l1.3,0c0.1,0,0.2,0,0.2,0.1s0.1,0.1,0.1,0.2
		c0,0.1,0,0.2-0.1,0.2c0,0.1-0.1,0.1-0.2,0.1L289.4,7.1z"/>
</g>
</svg>
