<svg width="44" height="47" viewBox="0 0 44 47" fill="none" xmlns="http://www.w3.org/2000/svg">
<circle cx="20.1581" cy="23.1581" r="21.6581" fill="#BF3154" stroke="white" stroke-width="3"/>
<path d="M40.124 25.9395C39.0129 33.99 33.1493 40.5213 25.4551 42.6114L15.8623 34.7246L21.8105 23.1582L21.1494 14.2354L24.7852 10.6006L40.124 25.9395Z" fill="#9C2F4B"/>
<path d="M14.4192 19.7203C15.9942 18.6704 20.1939 16.7798 24.3938 17.6198L24.3381 17.6803L24.5325 17.6617L22.0461 30.4635C21.9342 31.0682 21.8782 31.5387 21.8782 31.8746C21.8782 32.3448 22.0128 32.7477 22.2815 33.0836C22.5503 33.4196 22.9421 33.6101 23.4573 33.6549C23.2109 34.4613 22.6737 35.0779 21.845 35.5035C21.0163 35.9291 20.1088 36.1412 19.1233 36.1412C17.9587 36.1412 17.0178 35.8504 16.301 35.2682C15.6066 34.6634 15.259 33.8003 15.259 32.6803C15.2591 31.5825 15.6284 29.2195 16.3674 25.5914L16.5022 24.9196L17.0881 21.8971C16.6113 20.6136 15.7697 19.4503 14.4192 19.7203ZM22.2473 10.2701C23.2999 10.2701 24.1515 10.505 24.801 10.9752C25.4505 11.4456 25.7756 12.1066 25.7756 12.9576C25.7756 13.8086 25.4287 14.4697 24.7346 14.9401C24.0627 15.4104 23.1886 15.6461 22.1135 15.6461C21.0384 15.6461 20.1644 15.4222 19.4924 14.9742C18.8428 14.5039 18.5178 13.8538 18.5178 13.025C18.5179 12.1515 18.8655 11.4798 19.5598 11.0094C20.2765 10.5167 21.1723 10.2702 22.2473 10.2701Z" fill="white"/>
</svg>
