<svg width="61" height="61" viewBox="0 0 61 61" fill="none" xmlns="http://www.w3.org/2000/svg">
<g clip-path="url(#clip0_23_1025)">
<path d="M2.10601 0H0V4.21201H2.10601V0Z" fill="#1D1D1B"/>
<path d="M2.10601 4.21201H0V8.42402H2.10601V4.21201Z" fill="#1D1D1B"/>
<path d="M2.10601 8.40919H0V14.7272H2.10601V8.40919Z" fill="#1D1D1B"/>
<path d="M2.10601 16.8332H0V21.0452H2.10601V16.8332Z" fill="#1D1D1B"/>
<path d="M2.10601 23.1364H0V27.3484H2.10601V23.1364Z" fill="#1D1D1B"/>
<path d="M2.10601 29.4544H0V31.5604H2.10601V29.4544Z" fill="#1D1D1B"/>
<path d="M2.10601 33.6516H0V44.1668H2.10601V33.6516Z" fill="#1D1D1B"/>
<path d="M2.10601 46.2876H0V61.0148H2.10601V46.2876Z" fill="#1D1D1B"/>
<path d="M4.21196 0H2.10596V2.10601H4.21196V0Z" fill="#1D1D1B"/>
<path d="M4.21196 12.6212H2.10596V14.7272H4.21196V12.6212Z" fill="#1D1D1B"/>
<path d="M4.21196 23.1364H2.10596V27.3484H4.21196V23.1364Z" fill="#1D1D1B"/>
<path d="M4.21196 31.5604H2.10596V37.8784H4.21196V31.5604Z" fill="#1D1D1B"/>
<path d="M4.21196 46.2876H2.10596V48.3936H4.21196V46.2876Z" fill="#1D1D1B"/>
<path d="M4.21196 58.9088H2.10596V61.0148H4.21196V58.9088Z" fill="#1D1D1B"/>
<path d="M6.31792 0H4.21191V2.10601H6.31792V0Z" fill="#1D1D1B"/>
<path d="M6.31792 4.21201H4.21191V8.42402H6.31792V4.21201Z" fill="#1D1D1B"/>
<path d="M6.31792 8.40919H4.21191V10.5152H6.31792V8.40919Z" fill="#1D1D1B"/>
<path d="M6.31792 12.6212H4.21191V14.7272H6.31792V12.6212Z" fill="#1D1D1B"/>
<path d="M6.31792 16.8332H4.21191V21.0452H6.31792V16.8332Z" fill="#1D1D1B"/>
<path d="M6.31792 23.1364H4.21191V29.4544H6.31792V23.1364Z" fill="#1D1D1B"/>
<path d="M6.31792 33.6516H4.21191V39.9696H6.31792V33.6516Z" fill="#1D1D1B"/>
<path d="M6.31792 42.0756H4.21191V44.1816H6.31792V42.0756Z" fill="#1D1D1B"/>
<path d="M6.31792 46.2876H4.21191V48.3936H6.31792V46.2876Z" fill="#1D1D1B"/>
<path d="M6.31792 50.4848H4.21191V56.8028H6.31792V50.4848Z" fill="#1D1D1B"/>
<path d="M6.31792 58.9088H4.21191V61.0148H6.31792V58.9088Z" fill="#1D1D1B"/>
<path d="M8.42388 0H6.31787V2.10601H8.42388V0Z" fill="#1D1D1B"/>
<path d="M8.42388 4.21201H6.31787V8.42402H8.42388V4.21201Z" fill="#1D1D1B"/>
<path d="M8.42388 8.40919H6.31787V10.5152H8.42388V8.40919Z" fill="#1D1D1B"/>
<path d="M8.42388 12.6212H6.31787V14.7272H8.42388V12.6212Z" fill="#1D1D1B"/>
<path d="M8.42388 16.8332H6.31787V18.9392H8.42388V16.8332Z" fill="#1D1D1B"/>
<path d="M8.42388 21.0304H6.31787V23.1364H8.42388V21.0304Z" fill="#1D1D1B"/>
<path d="M8.42388 27.3484H6.31787V31.5604H8.42388V27.3484Z" fill="#1D1D1B"/>
<path d="M8.42388 39.9696H6.31787V44.1816H8.42388V39.9696Z" fill="#1D1D1B"/>
<path d="M8.42388 46.2876H6.31787V48.3936H8.42388V46.2876Z" fill="#1D1D1B"/>
<path d="M8.42388 50.4848H6.31787V56.8028H8.42388V50.4848Z" fill="#1D1D1B"/>
<path d="M8.42388 58.9088H6.31787V61.0148H8.42388V58.9088Z" fill="#1D1D1B"/>
<path d="M10.5152 0H8.40918V2.10601H10.5152V0Z" fill="#1D1D1B"/>
<path d="M10.5152 4.21201H8.40918V8.42402H10.5152V4.21201Z" fill="#1D1D1B"/>
<path d="M10.5152 8.40919H8.40918V10.5152H10.5152V8.40919Z" fill="#1D1D1B"/>
<path d="M10.5152 12.6212H8.40918V14.7272H10.5152V12.6212Z" fill="#1D1D1B"/>
<path d="M10.5152 16.8332H8.40918V18.9392H10.5152V16.8332Z" fill="#1D1D1B"/>
<path d="M10.5152 21.0304H8.40918V23.1364H10.5152V21.0304Z" fill="#1D1D1B"/>
<path d="M10.5152 25.2424H8.40918V42.0756H10.5152V25.2424Z" fill="#1D1D1B"/>
<path d="M10.5152 46.2876H8.40918V48.3936H10.5152V46.2876Z" fill="#1D1D1B"/>
<path d="M10.5152 50.4848H8.40918V56.8028H10.5152V50.4848Z" fill="#1D1D1B"/>
<path d="M10.5152 58.9088H8.40918V61.0148H10.5152V58.9088Z" fill="#1D1D1B"/>
<path d="M12.6211 0H10.5151V2.10601H12.6211V0Z" fill="#1D1D1B"/>
<path d="M12.6211 12.6212H10.5151V14.7272H12.6211V12.6212Z" fill="#1D1D1B"/>
<path d="M12.6211 16.8332H10.5151V23.1512H12.6211V16.8332Z" fill="#1D1D1B"/>
<path d="M12.6211 31.5604H10.5151V33.6664H12.6211V31.5604Z" fill="#1D1D1B"/>
<path d="M12.6211 37.8636H10.5151V39.9696H12.6211V37.8636Z" fill="#1D1D1B"/>
<path d="M12.6211 46.2876H10.5151V48.3936H12.6211V46.2876Z" fill="#1D1D1B"/>
<path d="M12.6211 58.9088H10.5151V61.0148H12.6211V58.9088Z" fill="#1D1D1B"/>
<path d="M14.7271 0H12.6211V4.21201H14.7271V0Z" fill="#1D1D1B"/>
<path d="M14.7271 4.21201H12.6211V8.42402H14.7271V4.21201Z" fill="#1D1D1B"/>
<path d="M14.7271 8.40919H12.6211V14.7272H14.7271V8.40919Z" fill="#1D1D1B"/>
<path d="M14.7271 16.8332H12.6211V18.9392H14.7271V16.8332Z" fill="#1D1D1B"/>
<path d="M14.7271 21.0304H12.6211V23.1364H14.7271V21.0304Z" fill="#1D1D1B"/>
<path d="M14.7271 25.2424H12.6211V27.3484H14.7271V25.2424Z" fill="#1D1D1B"/>
<path d="M14.7271 29.4544H12.6211V31.5604H14.7271V29.4544Z" fill="#1D1D1B"/>
<path d="M14.7271 33.6516H12.6211V35.7576H14.7271V33.6516Z" fill="#1D1D1B"/>
<path d="M14.7271 37.8636H12.6211V39.9696H14.7271V37.8636Z" fill="#1D1D1B"/>
<path d="M14.7271 42.0756H12.6211V44.1816H14.7271V42.0756Z" fill="#1D1D1B"/>
<path d="M14.7271 46.2876H12.6211V61.0148H14.7271V46.2876Z" fill="#1D1D1B"/>
<path d="M16.8331 21.0304H14.7271V23.1364H16.8331V21.0304Z" fill="#1D1D1B"/>
<path d="M16.8331 25.2424H14.7271V27.3484H16.8331V25.2424Z" fill="#1D1D1B"/>
<path d="M16.8331 31.5604H14.7271V37.8784H16.8331V31.5604Z" fill="#1D1D1B"/>
<path d="M16.8331 39.9696H14.7271V42.0756H16.8331V39.9696Z" fill="#1D1D1B"/>
<path d="M18.939 4.21201H16.833V8.42402H18.939V4.21201Z" fill="#1D1D1B"/>
<path d="M18.939 8.40919H16.833V16.8184H18.939V8.40919Z" fill="#1D1D1B"/>
<path d="M18.939 18.9392H16.833V21.0452H18.939V18.9392Z" fill="#1D1D1B"/>
<path d="M18.939 27.3484H16.833V31.5604H18.939V27.3484Z" fill="#1D1D1B"/>
<path d="M18.939 35.7576H16.833V37.8636H18.939V35.7576Z" fill="#1D1D1B"/>
<path d="M18.939 39.9696H16.833V42.0756H18.939V39.9696Z" fill="#1D1D1B"/>
<path d="M18.939 44.1816H16.833V46.2876H18.939V44.1816Z" fill="#1D1D1B"/>
<path d="M18.939 48.3788H16.833V56.788H18.939V48.3788Z" fill="#1D1D1B"/>
<path d="M18.939 58.9088H16.833V61.0148H18.939V58.9088Z" fill="#1D1D1B"/>
<path d="M21.0455 0H18.9395V2.10601H21.0455V0Z" fill="#1D1D1B"/>
<path d="M21.0455 6.31802H18.9395V8.42402H21.0455V6.31802Z" fill="#1D1D1B"/>
<path d="M21.0455 8.40919H18.9395V10.5152H21.0455V8.40919Z" fill="#1D1D1B"/>
<path d="M21.0455 16.8332H18.9395V21.0452H21.0455V16.8332Z" fill="#1D1D1B"/>
<path d="M21.0455 25.2424H18.9395V31.5604H21.0455V25.2424Z" fill="#1D1D1B"/>
<path d="M21.0455 33.6516H18.9395V39.9696H21.0455V33.6516Z" fill="#1D1D1B"/>
<path d="M21.0455 42.0756H18.9395V46.2876H21.0455V42.0756Z" fill="#1D1D1B"/>
<path d="M21.0455 48.3788H18.9395V50.4848H21.0455V48.3788Z" fill="#1D1D1B"/>
<path d="M21.0455 54.6968H18.9395V61.0148H21.0455V54.6968Z" fill="#1D1D1B"/>
<path d="M23.1363 0H21.0303V4.21201H23.1363V0Z" fill="#1D1D1B"/>
<path d="M23.1363 4.21201H21.0303V6.31802H23.1363V4.21201Z" fill="#1D1D1B"/>
<path d="M23.1363 8.40919H21.0303V10.5152H23.1363V8.40919Z" fill="#1D1D1B"/>
<path d="M23.1363 12.6212H21.0303V23.1364H23.1363V12.6212Z" fill="#1D1D1B"/>
<path d="M23.1363 25.2424H21.0303V31.5604H23.1363V25.2424Z" fill="#1D1D1B"/>
<path d="M23.1363 37.8636H21.0303V39.9696H23.1363V37.8636Z" fill="#1D1D1B"/>
<path d="M23.1363 42.0756H21.0303V44.1816H23.1363V42.0756Z" fill="#1D1D1B"/>
<path d="M23.1363 46.2876H21.0303V50.4996H23.1363V46.2876Z" fill="#1D1D1B"/>
<path d="M23.1363 52.5908H21.0303V54.6968H23.1363V52.5908Z" fill="#1D1D1B"/>
<path d="M25.2422 0H23.1362V2.10601H25.2422V0Z" fill="#1D1D1B"/>
<path d="M25.2422 10.5152H23.1362V12.6212H25.2422V10.5152Z" fill="#1D1D1B"/>
<path d="M25.2422 14.7272H23.1362V21.0452H25.2422V14.7272Z" fill="#1D1D1B"/>
<path d="M25.2422 25.2424H23.1362V29.4544H25.2422V25.2424Z" fill="#1D1D1B"/>
<path d="M25.2422 31.5604H23.1362V33.6664H25.2422V31.5604Z" fill="#1D1D1B"/>
<path d="M25.2422 37.8636H23.1362V39.9696H25.2422V37.8636Z" fill="#1D1D1B"/>
<path d="M25.2422 46.2876H23.1362V48.3936H25.2422V46.2876Z" fill="#1D1D1B"/>
<path d="M25.2422 50.4848H23.1362V54.6968H25.2422V50.4848Z" fill="#1D1D1B"/>
<path d="M25.2422 58.9088H23.1362V61.0148H25.2422V58.9088Z" fill="#1D1D1B"/>
<path d="M27.3482 0H25.2422V2.10601H27.3482V0Z" fill="#1D1D1B"/>
<path d="M27.3482 4.21201H25.2422V6.31802H27.3482V4.21201Z" fill="#1D1D1B"/>
<path d="M27.3482 8.40919H25.2422V10.5152H27.3482V8.40919Z" fill="#1D1D1B"/>
<path d="M27.3482 12.6212H25.2422V14.7272H27.3482V12.6212Z" fill="#1D1D1B"/>
<path d="M27.3482 18.9392H25.2422V23.1512H27.3482V18.9392Z" fill="#1D1D1B"/>
<path d="M27.3482 25.2424H25.2422V27.3484H27.3482V25.2424Z" fill="#1D1D1B"/>
<path d="M27.3482 31.5604H25.2422V33.6664H27.3482V31.5604Z" fill="#1D1D1B"/>
<path d="M27.3482 37.8636H25.2422V44.1816H27.3482V37.8636Z" fill="#1D1D1B"/>
<path d="M27.3482 48.3788H25.2422V50.4848H27.3482V48.3788Z" fill="#1D1D1B"/>
<path d="M29.4546 0H27.3486V2.10601H29.4546V0Z" fill="#1D1D1B"/>
<path d="M29.4546 6.31802H27.3486V8.42402H29.4546V6.31802Z" fill="#1D1D1B"/>
<path d="M29.4546 10.5152H27.3486V12.6212H29.4546V10.5152Z" fill="#1D1D1B"/>
<path d="M29.4546 16.8332H27.3486V18.9392H29.4546V16.8332Z" fill="#1D1D1B"/>
<path d="M29.4546 27.3484H27.3486V33.6664H29.4546V27.3484Z" fill="#1D1D1B"/>
<path d="M29.4546 44.1816H27.3486V50.4996H29.4546V44.1816Z" fill="#1D1D1B"/>
<path d="M29.4546 54.6968H27.3486V58.9088H29.4546V54.6968Z" fill="#1D1D1B"/>
<path d="M31.5606 2.106H29.4546V4.21201H31.5606V2.106Z" fill="#1D1D1B"/>
<path d="M31.5606 4.21201H29.4546V8.42402H31.5606V4.21201Z" fill="#1D1D1B"/>
<path d="M31.5606 10.5152H29.4546V14.7272H31.5606V10.5152Z" fill="#1D1D1B"/>
<path d="M31.5606 16.8332H29.4546V18.9392H31.5606V16.8332Z" fill="#1D1D1B"/>
<path d="M31.5606 21.0304H29.4546V23.1364H31.5606V21.0304Z" fill="#1D1D1B"/>
<path d="M31.5606 29.4544H29.4546V31.5604H31.5606V29.4544Z" fill="#1D1D1B"/>
<path d="M31.5606 33.6516H29.4546V35.7576H31.5606V33.6516Z" fill="#1D1D1B"/>
<path d="M31.5606 39.9696H29.4546V42.0756H31.5606V39.9696Z" fill="#1D1D1B"/>
<path d="M31.5606 44.1816H29.4546V48.3936H31.5606V44.1816Z" fill="#1D1D1B"/>
<path d="M31.5606 50.4848H29.4546V52.5908H31.5606V50.4848Z" fill="#1D1D1B"/>
<path d="M31.5606 56.8028H29.4546V58.9088H31.5606V56.8028Z" fill="#1D1D1B"/>
<path d="M33.6666 2.106H31.5605V4.21201H33.6666V2.106Z" fill="#1D1D1B"/>
<path d="M33.6666 6.31802H31.5605V8.42402H33.6666V6.31802Z" fill="#1D1D1B"/>
<path d="M33.6666 8.40919H31.5605V12.6212H33.6666V8.40919Z" fill="#1D1D1B"/>
<path d="M33.6666 21.0304H31.5605V27.3484H33.6666V21.0304Z" fill="#1D1D1B"/>
<path d="M33.6666 29.4544H31.5605V31.5604H33.6666V29.4544Z" fill="#1D1D1B"/>
<path d="M33.6666 37.8636H31.5605V39.9696H33.6666V37.8636Z" fill="#1D1D1B"/>
<path d="M33.6666 42.0756H31.5605V44.1816H33.6666V42.0756Z" fill="#1D1D1B"/>
<path d="M33.6666 46.2876H31.5605V48.3936H33.6666V46.2876Z" fill="#1D1D1B"/>
<path d="M33.6666 50.4848H31.5605V52.5908H33.6666V50.4848Z" fill="#1D1D1B"/>
<path d="M33.6666 54.6968H31.5605V56.8028H33.6666V54.6968Z" fill="#1D1D1B"/>
<path d="M35.7574 0H33.6514V2.10601H35.7574V0Z" fill="#1D1D1B"/>
<path d="M35.7574 8.40919H33.6514V10.5152H35.7574V8.40919Z" fill="#1D1D1B"/>
<path d="M35.7574 12.6212H33.6514V14.7272H35.7574V12.6212Z" fill="#1D1D1B"/>
<path d="M35.7574 18.9392H33.6514V33.6664H35.7574V18.9392Z" fill="#1D1D1B"/>
<path d="M35.7574 42.0756H33.6514V46.2876H35.7574V42.0756Z" fill="#1D1D1B"/>
<path d="M35.7574 52.5908H33.6514V54.6968H35.7574V52.5908Z" fill="#1D1D1B"/>
<path d="M35.7574 56.8028H33.6514V58.9088H35.7574V56.8028Z" fill="#1D1D1B"/>
<path d="M37.8638 0H35.7578V4.21201H37.8638V0Z" fill="#1D1D1B"/>
<path d="M37.8638 6.31802H35.7578V8.42402H37.8638V6.31802Z" fill="#1D1D1B"/>
<path d="M37.8638 8.40919H35.7578V12.6212H37.8638V8.40919Z" fill="#1D1D1B"/>
<path d="M37.8638 16.8332H35.7578V21.0452H37.8638V16.8332Z" fill="#1D1D1B"/>
<path d="M37.8638 25.2424H35.7578V31.5604H37.8638V25.2424Z" fill="#1D1D1B"/>
<path d="M37.8638 33.6516H35.7578V35.7576H37.8638V33.6516Z" fill="#1D1D1B"/>
<path d="M37.8638 37.8636H35.7578V39.9696H37.8638V37.8636Z" fill="#1D1D1B"/>
<path d="M37.8638 42.0756H35.7578V48.3936H37.8638V42.0756Z" fill="#1D1D1B"/>
<path d="M37.8638 50.4848H35.7578V54.6968H37.8638V50.4848Z" fill="#1D1D1B"/>
<path d="M37.8638 58.9088H35.7578V61.0148H37.8638V58.9088Z" fill="#1D1D1B"/>
<path d="M39.9698 0H37.8638V2.10601H39.9698V0Z" fill="#1D1D1B"/>
<path d="M39.9698 8.40919H37.8638V10.5152H39.9698V8.40919Z" fill="#1D1D1B"/>
<path d="M39.9698 12.6212H37.8638V16.8332H39.9698V12.6212Z" fill="#1D1D1B"/>
<path d="M39.9698 21.0304H37.8638V29.4396H39.9698V21.0304Z" fill="#1D1D1B"/>
<path d="M39.9698 31.5604H37.8638V33.6664H39.9698V31.5604Z" fill="#1D1D1B"/>
<path d="M39.9698 35.7576H37.8638V39.9696H39.9698V35.7576Z" fill="#1D1D1B"/>
<path d="M39.9698 44.1816H37.8638V46.2876H39.9698V44.1816Z" fill="#1D1D1B"/>
<path d="M39.9698 52.5908H37.8638V54.6968H39.9698V52.5908Z" fill="#1D1D1B"/>
<path d="M39.9698 58.9088H37.8638V61.0148H39.9698V58.9088Z" fill="#1D1D1B"/>
<path d="M42.0757 0H39.9697V2.10601H42.0757V0Z" fill="#1D1D1B"/>
<path d="M42.0757 4.21201H39.9697V6.31802H42.0757V4.21201Z" fill="#1D1D1B"/>
<path d="M42.0757 8.40919H39.9697V10.5152H42.0757V8.40919Z" fill="#1D1D1B"/>
<path d="M42.0757 18.9392H39.9697V21.0452H42.0757V18.9392Z" fill="#1D1D1B"/>
<path d="M42.0757 25.2424H39.9697V29.4544H42.0757V25.2424Z" fill="#1D1D1B"/>
<path d="M42.0757 31.5604H39.9697V33.6664H42.0757V31.5604Z" fill="#1D1D1B"/>
<path d="M42.0757 35.7576H39.9697V37.8636H42.0757V35.7576Z" fill="#1D1D1B"/>
<path d="M42.0757 39.9696H39.9697V44.1816H42.0757V39.9696Z" fill="#1D1D1B"/>
<path d="M42.0757 46.2876H39.9697V50.4996H42.0757V46.2876Z" fill="#1D1D1B"/>
<path d="M42.0757 54.6968H39.9697V56.8028H42.0757V54.6968Z" fill="#1D1D1B"/>
<path d="M42.0757 58.9088H39.9697V61.0148H42.0757V58.9088Z" fill="#1D1D1B"/>
<path d="M44.1817 0H42.0757V4.21201H44.1817V0Z" fill="#1D1D1B"/>
<path d="M44.1817 8.40919H42.0757V14.7272H44.1817V8.40919Z" fill="#1D1D1B"/>
<path d="M44.1817 18.9392H42.0757V25.2572H44.1817V18.9392Z" fill="#1D1D1B"/>
<path d="M44.1817 27.3484H42.0757V29.4544H44.1817V27.3484Z" fill="#1D1D1B"/>
<path d="M44.1817 33.6516H42.0757V54.682H44.1817V33.6516Z" fill="#1D1D1B"/>
<path d="M44.1817 56.8028H42.0757V58.9088H44.1817V56.8028Z" fill="#1D1D1B"/>
<path d="M46.2876 18.9392H44.1816V21.0452H46.2876V18.9392Z" fill="#1D1D1B"/>
<path d="M46.2876 23.1364H44.1816V25.2424H46.2876V23.1364Z" fill="#1D1D1B"/>
<path d="M46.2876 27.3484H44.1816V31.5604H46.2876V27.3484Z" fill="#1D1D1B"/>
<path d="M46.2876 39.9696H44.1816V44.1816H46.2876V39.9696Z" fill="#1D1D1B"/>
<path d="M46.2876 50.4848H44.1816V52.5908H46.2876V50.4848Z" fill="#1D1D1B"/>
<path d="M46.2876 54.6968H44.1816V58.9088H46.2876V54.6968Z" fill="#1D1D1B"/>
<path d="M48.3936 0H46.2876V4.21201H48.3936V0Z" fill="#1D1D1B"/>
<path d="M48.3936 4.21201H46.2876V8.42402H48.3936V4.21201Z" fill="#1D1D1B"/>
<path d="M48.3936 8.40919H46.2876V14.7272H48.3936V8.40919Z" fill="#1D1D1B"/>
<path d="M48.3936 16.8332H46.2876V23.1512H48.3936V16.8332Z" fill="#1D1D1B"/>
<path d="M48.3936 27.3484H46.2876V29.4544H48.3936V27.3484Z" fill="#1D1D1B"/>
<path d="M48.3936 35.7576H46.2876V37.8636H48.3936V35.7576Z" fill="#1D1D1B"/>
<path d="M48.3936 42.0756H46.2876V44.1816H48.3936V42.0756Z" fill="#1D1D1B"/>
<path d="M48.3936 46.2876H46.2876V48.3936H48.3936V46.2876Z" fill="#1D1D1B"/>
<path d="M48.3936 50.4848H46.2876V52.5908H48.3936V50.4848Z" fill="#1D1D1B"/>
<path d="M48.3936 54.6968H46.2876V56.8028H48.3936V54.6968Z" fill="#1D1D1B"/>
<path d="M50.4849 0H48.3789V2.10601H50.4849V0Z" fill="#1D1D1B"/>
<path d="M50.4849 12.6212H48.3789V14.7272H50.4849V12.6212Z" fill="#1D1D1B"/>
<path d="M50.4849 16.8332H48.3789V21.0452H50.4849V16.8332Z" fill="#1D1D1B"/>
<path d="M50.4849 25.2424H48.3789V29.4544H50.4849V25.2424Z" fill="#1D1D1B"/>
<path d="M50.4849 31.5604H48.3789V33.6664H50.4849V31.5604Z" fill="#1D1D1B"/>
<path d="M50.4849 37.8636H48.3789V44.1816H50.4849V37.8636Z" fill="#1D1D1B"/>
<path d="M50.4849 50.4848H48.3789V52.5908H50.4849V50.4848Z" fill="#1D1D1B"/>
<path d="M50.4849 54.6968H48.3789V61.0148H50.4849V54.6968Z" fill="#1D1D1B"/>
<path d="M52.5909 0H50.4849V2.10601H52.5909V0Z" fill="#1D1D1B"/>
<path d="M52.5909 4.21201H50.4849V8.42402H52.5909V4.21201Z" fill="#1D1D1B"/>
<path d="M52.5909 8.40919H50.4849V10.5152H52.5909V8.40919Z" fill="#1D1D1B"/>
<path d="M52.5909 12.6212H50.4849V14.7272H52.5909V12.6212Z" fill="#1D1D1B"/>
<path d="M52.5909 16.8332H50.4849V25.2424H52.5909V16.8332Z" fill="#1D1D1B"/>
<path d="M52.5909 27.3484H50.4849V29.4544H52.5909V27.3484Z" fill="#1D1D1B"/>
<path d="M52.5909 35.7576H50.4849V37.8636H52.5909V35.7576Z" fill="#1D1D1B"/>
<path d="M52.5909 42.0756H50.4849V52.5908H52.5909V42.0756Z" fill="#1D1D1B"/>
<path d="M52.5909 54.6968H50.4849V56.8028H52.5909V54.6968Z" fill="#1D1D1B"/>
<path d="M52.5909 58.9088H50.4849V61.0148H52.5909V58.9088Z" fill="#1D1D1B"/>
<path d="M54.6968 0H52.5908V2.10601H54.6968V0Z" fill="#1D1D1B"/>
<path d="M54.6968 4.21201H52.5908V8.42402H54.6968V4.21201Z" fill="#1D1D1B"/>
<path d="M54.6968 8.40919H52.5908V10.5152H54.6968V8.40919Z" fill="#1D1D1B"/>
<path d="M54.6968 12.6212H52.5908V14.7272H54.6968V12.6212Z" fill="#1D1D1B"/>
<path d="M54.6968 16.8332H52.5908V18.9392H54.6968V16.8332Z" fill="#1D1D1B"/>
<path d="M54.6968 23.1364H52.5908V27.3484H54.6968V23.1364Z" fill="#1D1D1B"/>
<path d="M54.6968 29.4544H52.5908V31.5604H54.6968V29.4544Z" fill="#1D1D1B"/>
<path d="M54.6968 33.6516H52.5908V35.7576H54.6968V33.6516Z" fill="#1D1D1B"/>
<path d="M54.6968 44.1816H52.5908V48.3936H54.6968V44.1816Z" fill="#1D1D1B"/>
<path d="M54.6968 52.5908H52.5908V58.9088H54.6968V52.5908Z" fill="#1D1D1B"/>
<path d="M56.8028 0H54.6968V2.10601H56.8028V0Z" fill="#1D1D1B"/>
<path d="M56.8028 4.21201H54.6968V8.42402H56.8028V4.21201Z" fill="#1D1D1B"/>
<path d="M56.8028 8.40919H54.6968V10.5152H56.8028V8.40919Z" fill="#1D1D1B"/>
<path d="M56.8028 12.6212H54.6968V14.7272H56.8028V12.6212Z" fill="#1D1D1B"/>
<path d="M56.8028 16.8332H54.6968V18.9392H56.8028V16.8332Z" fill="#1D1D1B"/>
<path d="M56.8028 25.2424H54.6968V27.3484H56.8028V25.2424Z" fill="#1D1D1B"/>
<path d="M56.8028 29.4544H54.6968V31.5604H56.8028V29.4544Z" fill="#1D1D1B"/>
<path d="M56.8028 33.6516H54.6968V39.9696H56.8028V33.6516Z" fill="#1D1D1B"/>
<path d="M56.8028 42.0756H54.6968V48.3936H56.8028V42.0756Z" fill="#1D1D1B"/>
<path d="M56.8028 50.4848H54.6968V56.8028H56.8028V50.4848Z" fill="#1D1D1B"/>
<path d="M56.8028 58.9088H54.6968V61.0148H56.8028V58.9088Z" fill="#1D1D1B"/>
<path d="M58.9087 0H56.8027V2.10601H58.9087V0Z" fill="#1D1D1B"/>
<path d="M58.9087 12.6212H56.8027V14.7272H58.9087V12.6212Z" fill="#1D1D1B"/>
<path d="M58.9087 23.1364H56.8027V25.2424H58.9087V23.1364Z" fill="#1D1D1B"/>
<path d="M58.9087 31.5604H56.8027V33.6664H58.9087V31.5604Z" fill="#1D1D1B"/>
<path d="M58.9087 39.9696H56.8027V46.2876H58.9087V39.9696Z" fill="#1D1D1B"/>
<path d="M58.9087 52.5908H56.8027V58.9088H58.9087V52.5908Z" fill="#1D1D1B"/>
<path d="M61.0147 0H58.9087V4.21201H61.0147V0Z" fill="#1D1D1B"/>
<path d="M61.0147 4.21201H58.9087V8.42402H61.0147V4.21201Z" fill="#1D1D1B"/>
<path d="M61.0147 8.40919H58.9087V14.7272H61.0147V8.40919Z" fill="#1D1D1B"/>
<path d="M61.0147 18.9392H58.9087V21.0452H61.0147V18.9392Z" fill="#1D1D1B"/>
<path d="M61.0147 27.3484H58.9087V29.4544H61.0147V27.3484Z" fill="#1D1D1B"/>
<path d="M61.0147 35.7576H58.9087V37.8636H61.0147V35.7576Z" fill="#1D1D1B"/>
<path d="M61.0147 42.0756H58.9087V46.2876H61.0147V42.0756Z" fill="#1D1D1B"/>
<path d="M61.0147 48.3788H58.9087V50.4848H61.0147V48.3788Z" fill="#1D1D1B"/>
<path d="M61.0147 52.5908H58.9087V54.6968H61.0147V52.5908Z" fill="#1D1D1B"/>
</g>
<defs>
<clipPath id="clip0_23_1025">
<rect width="61" height="61" fill="white"/>
</clipPath>
</defs>
</svg>
